<svg width="343" height="306" viewBox="0 0 343 306" fill="none" xmlns="http://www.w3.org/2000/svg">
<g opacity="0.1" clip-path="url(#clip0_462_837)">
<path d="M243.242 133.727C252.781 127.048 262.278 120.31 271.734 113.515C274.248 111.707 277.575 112.173 280.013 113.904C305.342 131.898 330.31 149.642 354.916 167.136C356.868 168.519 357.993 170.584 357.993 172.99C357.984 223.816 357.986 274.797 358 325.934C358 332.01 351.839 334.972 346.873 331.44C323.369 314.698 299.677 297.86 275.797 280.927C275.743 280.889 275.678 280.868 275.612 280.868C275.546 280.868 275.482 280.889 275.429 280.927C251.536 297.925 227.675 314.874 203.846 331.774C201.471 333.457 198.22 333.276 195.914 331.635C171.794 314.475 148.021 297.577 124.595 280.941C124.539 280.901 124.472 280.879 124.403 280.879C124.334 280.879 124.268 280.901 124.213 280.941C100.246 297.962 76.3942 314.904 52.6582 331.767C49.2896 334.166 44.1844 332.984 42.58 328.923C42.1956 327.954 42.0035 326.474 42.0035 324.48C41.9988 273.687 41.9988 223.403 42.0035 173.63C42.0035 170.761 43.0222 168.603 45.0596 167.157C70.4718 149.102 95.4486 131.356 119.99 113.918C122.935 111.828 125.915 111.853 128.929 113.995C138.158 120.554 147.167 126.967 155.955 133.233C156.655 133.734 156.782 133.614 156.337 132.872C150.85 123.768 146.12 114.498 142.147 105.06C139.11 97.8431 137.22 91.1358 136.479 84.9384C135.984 80.8316 136.151 76.143 136.98 70.8727C139.841 52.6491 150.433 36.8451 165.784 27.0137C190.003 11.4878 221.183 14.2481 242.548 33.6815C252.457 42.6972 258.963 53.8937 262.065 67.2711C264.464 77.6263 263.83 87.956 260.162 98.2602C255.717 110.755 249.681 122.102 243.041 133.546C242.833 133.903 242.9 133.963 243.242 133.727ZM243.951 102.835C247.493 95.0897 250.702 85.9814 249.966 77.2068C246.694 38.1384 202.603 16.7651 170.402 40.1269C160.28 47.4692 153.714 57.5069 150.704 70.24C148.801 78.2868 149.401 86.4449 152.503 94.7142C157.615 108.342 164.408 120.753 172.306 133.414C180.965 147.301 190.084 160.674 199.665 173.533C199.822 173.741 199.975 173.741 200.123 173.533C209.028 161.49 217.467 149.195 225.441 136.647C232.678 125.258 238.848 113.988 243.951 102.835ZM145.252 210.522C144.696 210.406 144.196 210.174 143.752 209.827C139.774 206.74 135.625 204.193 131.305 202.185C131.279 202.174 131.251 202.169 131.223 202.171C131.195 202.173 131.168 202.182 131.145 202.197C131.121 202.212 131.102 202.233 131.089 202.258C131.075 202.283 131.069 202.31 131.069 202.338V268.711C131.069 268.823 131.095 268.933 131.146 269.032C131.197 269.131 131.27 269.217 131.36 269.281L192.914 313.015C193.15 313.177 193.268 313.117 193.268 312.834L193.261 249.973C193.261 249.891 193.234 249.812 193.185 249.748C193.136 249.684 193.067 249.638 192.99 249.618C191.052 249.104 189.149 248.52 187.836 246.914C184.072 242.318 187.044 236.359 192.865 235.949C193.129 235.93 193.261 235.789 193.261 235.525V187.716C193.261 187.438 193.175 187.188 193.004 186.966C187.6 179.985 182.393 172.881 177.383 165.655C176.716 164.691 175.922 163.882 175.001 163.228C160.34 152.822 145.824 142.504 131.451 132.274C131.196 132.093 131.069 132.16 131.069 132.476V187.056C131.069 187.348 131.208 187.543 131.485 187.64C138.246 190.018 144.645 193.552 150.684 198.243C153.309 200.28 154.851 203.256 153.559 206.364C152.045 209.994 149.276 211.38 145.252 210.522ZM219.273 246.601C219.141 249.326 217.168 251.822 214.543 252.552C212.237 253.185 209.465 252.719 207.09 252.552C206.835 252.539 206.708 252.657 206.708 252.907V312.973C206.708 313.004 206.716 313.035 206.732 313.061C206.748 313.088 206.77 313.11 206.797 313.124C206.823 313.139 206.853 313.145 206.883 313.143C206.913 313.141 206.941 313.13 206.965 313.112L268.622 269.295C268.817 269.156 268.914 268.966 268.914 268.725V239.467C268.914 239.336 268.876 239.208 268.806 239.097C268.736 238.986 268.636 238.898 268.518 238.841C263.156 236.373 263.17 229.086 268.476 226.667C268.768 226.532 268.914 226.305 268.914 225.985V132.476C268.914 132.17 268.789 132.105 268.539 132.281C253.643 142.9 239.022 153.295 224.676 163.465C223.635 164.202 222.748 165.094 222.016 166.142C217.034 173.243 211.994 180.152 206.895 186.868C206.77 187.03 206.708 187.214 206.708 187.417V238.473C206.708 238.57 206.742 238.665 206.805 238.738C206.867 238.812 206.954 238.861 207.048 238.876C208.734 239.154 210.389 239.319 212.014 239.37C216.258 239.502 219.481 242.22 219.273 246.601ZM68.6057 188.433C78.3019 186.924 80.2606 200.134 71.12 201.622C65.531 202.535 60.449 203.296 55.8741 203.903C55.5778 203.945 55.4296 204.114 55.4296 204.41V312.82C55.4296 313.163 55.5708 313.235 55.8533 313.036L117.323 269.351C117.55 269.193 117.663 268.975 117.663 268.697L117.67 132.434C117.67 132.397 117.659 132.361 117.639 132.33C117.62 132.299 117.592 132.273 117.559 132.257C117.526 132.24 117.489 132.233 117.453 132.236C117.416 132.239 117.381 132.252 117.351 132.274L55.7838 176.008C55.5477 176.175 55.4296 176.402 55.4296 176.689V189.976C55.4296 190.264 55.5708 190.386 55.8533 190.345C59.5808 189.812 63.8316 189.174 68.6057 188.433ZM295.69 240.447C291.87 244.522 287.049 241.525 282.68 240.816C282.444 240.774 282.326 240.874 282.326 241.115V268.878C282.326 268.944 282.342 269.01 282.372 269.068C282.403 269.126 282.446 269.175 282.5 269.212L344.289 313.105C344.315 313.125 344.346 313.137 344.378 313.139C344.41 313.142 344.442 313.136 344.471 313.122C344.5 313.107 344.524 313.085 344.541 313.058C344.558 313.03 344.567 312.999 344.567 312.966V293.463C344.567 293.23 344.48 293.005 344.324 292.831C340.601 288.645 336.477 284.072 331.953 279.113C328.501 275.323 329.293 269.462 334.343 267.779C338.983 266.236 341.615 269.531 344.206 272.653C344.447 272.936 344.567 272.892 344.567 272.521V176.661C344.567 176.383 344.451 176.163 344.22 176.001L282.66 132.26C282.629 132.237 282.592 132.224 282.554 132.221C282.516 132.218 282.478 132.226 282.443 132.244C282.409 132.262 282.38 132.289 282.359 132.322C282.339 132.356 282.327 132.394 282.326 132.434V226.639C282.326 226.719 282.355 226.797 282.407 226.859C282.459 226.921 282.531 226.964 282.611 226.98C285.246 227.452 288.068 228.099 291.078 228.919C293.097 229.471 294.609 230.264 295.613 231.297C298.017 233.786 298.107 237.861 295.69 240.447Z" fill="#372B2E"/>
<path d="M233 78C233 82.3336 232.146 86.6248 230.488 90.6286C228.83 94.6323 226.399 98.2702 223.335 101.335C220.27 104.399 216.632 106.83 212.629 108.488C208.625 110.146 204.334 111 200 111C191.248 111 182.854 107.523 176.665 101.335C170.477 95.1458 167 86.7521 167 78C167 69.2479 170.477 60.8542 176.665 54.6655C182.854 48.4768 191.248 45 200 45C204.334 45 208.625 45.8536 212.629 47.512C216.632 49.1704 220.27 51.6011 223.335 54.6655C226.399 57.7298 228.83 61.3677 230.488 65.3714C232.146 69.3752 233 73.6664 233 78ZM219.575 78C219.575 72.8085 217.512 67.8296 213.841 64.1587C210.17 60.4877 205.192 58.4254 200 58.4254C194.808 58.4254 189.83 60.4877 186.159 64.1587C182.488 67.8296 180.425 72.8085 180.425 78C180.425 83.1915 182.488 88.1704 186.159 91.8413C189.83 95.5123 194.808 97.5746 200 97.5746C205.192 97.5746 210.17 95.5123 213.841 91.8413C217.512 88.1704 219.575 83.1915 219.575 78Z" fill="#372B2E"/>
<path d="M113.118 195.681C112.418 196.008 111.679 196.162 110.9 196.144C105.599 196.03 99.9819 196.536 94.0488 197.662C90.684 198.302 87.3329 198.302 85.2247 195.232C82.3818 191.099 84.7441 185.844 89.6745 185C96.5621 183.829 103.951 182.618 110.859 183.114C117.651 183.605 119.388 192.754 113.118 195.681Z" fill="#372B2E"/>
<path d="M181.696 230.347C183.543 236.478 176.589 241.694 171.305 237.467C165.623 232.924 160.644 227.863 156.367 222.286C152.276 216.948 158.085 210.032 164.351 212.524C165.296 212.904 166.385 213.843 167.616 215.342C170.923 219.387 174.489 223.248 178.628 226.452C180.282 227.735 181.305 229.033 181.696 230.347Z" fill="#372B2E"/>
<path d="M249.044 229.424L230.173 237.085C226.845 238.436 225.243 242.229 226.594 245.556L226.767 245.981C228.118 249.308 231.912 250.91 235.24 249.559L254.111 241.899C257.439 240.547 259.041 236.755 257.69 233.428L257.517 233.002C256.166 229.675 252.372 228.073 249.044 229.424Z" fill="#372B2E"/>
<path d="M328.502 254.934C332.893 260.41 326.839 268.215 320.583 265.409C319.446 264.897 318.159 263.769 316.721 262.027C313.14 257.678 309.173 253.79 304.822 250.363C297.571 244.645 305.678 233.593 313.541 239.874C318.871 244.132 323.858 249.152 328.502 254.934Z" fill="#372B2E"/>
</g>
<defs>
<clipPath id="clip0_462_837">
<rect width="343" height="306" fill="white"/>
</clipPath>
</defs>
</svg>
