<svg width="28" height="28" viewBox="0 0 28 28" fill="none" xmlns="http://www.w3.org/2000/svg">
<path d="M14.962 0.921778C14.9622 0.80115 14.9387 0.681661 14.8927 0.570135C14.8467 0.458608 14.7792 0.357228 14.6941 0.271782C14.6089 0.186336 14.5078 0.118498 14.3964 0.0721414C14.2851 0.0257847 14.1657 0.00181679 14.045 0.00160654L13.9645 0.00146624C13.8438 0.00125562 13.7243 0.0248066 13.6128 0.0707745C13.5013 0.116742 13.3999 0.184227 13.3145 0.269375C13.229 0.354524 13.1612 0.455668 13.1148 0.567034C13.0685 0.678399 13.0445 0.797805 13.0443 0.918433L13.0396 3.61547C13.0394 3.7361 13.0629 3.85559 13.1089 3.96711C13.1549 4.07864 13.2223 4.18002 13.3075 4.26547C13.3926 4.35091 13.4938 4.41875 13.6051 4.46511C13.7165 4.51147 13.8359 4.53543 13.9565 4.53564L14.0371 4.53578C14.1577 4.53599 14.2772 4.51244 14.3888 4.46648C14.5003 4.42051 14.6017 4.35302 14.6871 4.26787C14.7726 4.18273 14.8404 4.08158 14.8867 3.97022C14.9331 3.85885 14.9571 3.73944 14.9573 3.61882L14.962 0.921778Z" fill="white"/>
<path d="M7.33598 7.28809C7.4229 7.20117 7.49186 7.09797 7.5389 6.9844C7.58594 6.87083 7.61015 6.7491 7.61015 6.62618C7.61015 6.50325 7.58594 6.38152 7.5389 6.26795C7.49186 6.15438 7.4229 6.05119 7.33598 5.96426L5.49452 4.12281C5.4076 4.03588 5.30441 3.96693 5.19084 3.91989C5.07727 3.87285 4.95554 3.84863 4.83261 3.84863C4.70968 3.84863 4.58796 3.87285 4.47439 3.91989C4.36081 3.96693 4.25762 4.03588 4.1707 4.12281L4.12612 4.16739C4.03919 4.25431 3.97024 4.3575 3.9232 4.47108C3.87616 4.58465 3.85194 4.70637 3.85194 4.8293C3.85194 4.95223 3.87616 5.07395 3.9232 5.18753C3.97024 5.3011 4.03919 5.40429 4.12612 5.49121L5.96757 7.33267C6.0545 7.41959 6.15769 7.48855 6.27126 7.53559C6.38483 7.58263 6.50656 7.60684 6.62949 7.60684C6.75242 7.60684 6.87414 7.58263 6.98771 7.53559C7.10128 7.48855 7.20448 7.41959 7.2914 7.33267L7.33598 7.28809Z" fill="white"/>
<path d="M23.8763 5.49715C24.0524 5.32111 24.1513 5.08235 24.1513 4.83339C24.1513 4.58443 24.0524 4.34567 23.8763 4.16962L23.8317 4.12504C23.6557 3.949 23.4169 3.8501 23.168 3.8501C22.919 3.8501 22.6802 3.949 22.5042 4.12504L20.6689 5.96031C20.4929 6.13635 20.394 6.37511 20.394 6.62407C20.394 6.87303 20.4929 7.1118 20.6689 7.28784L20.7135 7.33243C20.8896 7.50847 21.1283 7.60737 21.3773 7.60737C21.6262 7.60737 21.865 7.50847 22.041 7.33243L23.8763 5.49715Z" fill="white"/>
<path d="M19.8894 7.49913C15.8 3.79071 9.54782 4.72153 6.56006 9.29862C5.60121 10.7671 5.09946 12.7032 5.21767 14.4817C5.38405 16.9808 6.42054 19.0555 8.32715 20.7059C9.06883 21.3477 9.13013 21.7558 9.11787 22.7549C9.11729 22.7853 9.13217 22.8004 9.16253 22.8004H18.8403C18.8748 22.8004 18.8911 22.7835 18.8894 22.7497C18.8579 21.9913 18.9157 21.3162 19.4122 20.9222C23.7081 17.5202 23.9525 11.1839 19.8894 7.49913Z" fill="white"/>
<path d="M4.53671 13.963C4.53692 13.8423 4.51337 13.7229 4.46741 13.6113C4.42144 13.4998 4.35395 13.3984 4.26881 13.313C4.18366 13.2275 4.08251 13.1597 3.97115 13.1133C3.85978 13.067 3.74038 13.043 3.61975 13.0428L0.922718 13.0381C0.802089 13.0379 0.682601 13.0614 0.571074 13.1074C0.459548 13.1534 0.358167 13.2208 0.272721 13.306C0.187275 13.3911 0.119437 13.4923 0.0730806 13.6037C0.0267238 13.715 0.0027561 13.8344 0.00254584 13.9551L0.00239703 14.0374C0.00218641 14.158 0.0257374 14.2775 0.0717053 14.389C0.117673 14.5005 0.185158 14.6019 0.270306 14.6874C0.355455 14.7728 0.456599 14.8406 0.567964 14.887C0.67933 14.9334 0.798736 14.9573 0.919364 14.9575L3.61639 14.9622C3.73702 14.9625 3.85651 14.9389 3.96804 14.8929C4.07956 14.847 4.18094 14.7795 4.26639 14.6943C4.35184 14.6092 4.41967 14.508 4.46603 14.3967C4.51239 14.2853 4.53636 14.1659 4.53657 14.0453L4.53671 13.963Z" fill="white"/>
<path d="M27.9996 13.9635C27.9998 13.8428 27.9763 13.7233 27.9303 13.6118C27.8843 13.5003 27.8168 13.3989 27.7317 13.3135C27.6465 13.228 27.5454 13.1602 27.434 13.1138C27.3227 13.0675 27.2033 13.0435 27.0826 13.0433L24.3856 13.0386C24.265 13.0384 24.1455 13.0619 24.0339 13.1079C23.9224 13.1539 23.821 13.2213 23.7356 13.3065C23.6501 13.3916 23.5823 13.4928 23.5359 13.6041C23.4896 13.7155 23.4656 13.8349 23.4654 13.9555L23.4653 14.0361C23.4651 14.1567 23.4886 14.2762 23.5346 14.3877C23.5805 14.4993 23.648 14.6007 23.7332 14.6861C23.8183 14.7715 23.9195 14.8394 24.0308 14.8857C24.1422 14.9321 24.2616 14.9561 24.3822 14.9563L27.0793 14.961C27.1999 14.9612 27.3194 14.9376 27.4309 14.8917C27.5424 14.8457 27.6438 14.7782 27.7293 14.6931C27.8147 14.6079 27.8826 14.5068 27.9289 14.3954C27.9753 14.2841 27.9992 14.1646 27.9994 14.044L27.9996 13.9635Z" fill="white"/>
<path d="M9.13878 24.7984C9.35507 26.6654 10.8787 28.0007 12.7535 28.006C13.9695 28.0095 14.8154 28.0098 15.2912 28.0069C17.1993 27.9972 18.5749 26.647 18.8726 24.816C18.8802 24.771 18.8613 24.7485 18.8157 24.7485H9.18344C9.14958 24.7485 9.1347 24.7652 9.13878 24.7984Z" fill="white"/>
<path d="M14.0445 0.00174381L13.9639 0.00160321C13.4566 0.000717779 13.0446 0.411257 13.0437 0.918568L13.039 3.6156C13.0382 4.12291 13.4487 4.53489 13.956 4.53577L14.0366 4.53591C14.5439 4.5368 14.9558 4.12626 14.9567 3.61895L14.9614 0.921915C14.9623 0.414604 14.5518 0.00262924 14.0445 0.00174381Z" fill="white"/>
<path d="M7.33583 5.96431L5.49437 4.12285C5.12881 3.75728 4.53611 3.75728 4.17055 4.12285L4.12597 4.16743C3.7604 4.53299 3.7604 5.12569 4.12597 5.49125L5.96743 7.33271C6.33299 7.69827 6.92568 7.69827 7.29125 7.33271L7.33583 7.28813C7.70139 6.92257 7.70139 6.32987 7.33583 5.96431Z" fill="white"/>
<path d="M23.8758 4.16929L23.8312 4.12471C23.4646 3.75812 22.8702 3.75812 22.5037 4.12471L20.6684 5.95997C20.3018 6.32656 20.3018 6.92092 20.6684 7.28751L20.713 7.33209C21.0796 7.69868 21.6739 7.69868 22.0405 7.33209L23.8758 5.49682C24.2424 5.13023 24.2424 4.53588 23.8758 4.16929Z" fill="white"/>
<path d="M19.8894 7.49913C23.9525 11.1839 23.7081 17.5202 19.4122 20.9222C18.9157 21.3162 18.8579 21.9913 18.8894 22.7497C18.8911 22.7835 18.8748 22.8004 18.8403 22.8004H9.16253C9.13217 22.8004 9.11729 22.7853 9.11787 22.7549C9.13013 21.7558 9.06883 21.3477 8.32715 20.7059C6.42054 19.0555 5.38405 16.9808 5.21767 14.4817C5.09946 12.7032 5.60121 10.7671 6.56006 9.29862C9.54782 4.72153 15.8 3.79071 19.8894 7.49913Z" fill="white"/>
<path d="M3.61896 13.0424L0.921925 13.0377C0.414614 13.0369 0.00263915 13.4474 0.00175373 13.9547L0.00161007 14.037C0.000724641 14.5443 0.411264 14.9563 0.918575 14.9572L3.61561 14.9619C4.12292 14.9628 4.53489 14.5522 4.53578 14.0449L4.53592 13.9626C4.53681 13.4553 4.12627 13.0433 3.61896 13.0424Z" fill="white"/>
<path d="M27.0818 13.0434L24.3848 13.0387C23.8775 13.0378 23.4655 13.4484 23.4646 13.9557L23.4645 14.0362C23.4636 14.5435 23.8742 14.9555 24.3815 14.9564L27.0785 14.9611C27.5858 14.962 27.9978 14.5515 27.9987 14.0442L27.9988 13.9636C27.9997 13.4563 27.5892 13.0443 27.0818 13.0434Z" fill="white"/>
<path d="M12.7535 28.006C10.8787 28.0007 9.35507 26.6654 9.13878 24.7984C9.1347 24.7652 9.14958 24.7485 9.18344 24.7485H18.8157C18.8613 24.7485 18.8802 24.771 18.8726 24.816C18.5749 26.647 17.1993 27.9972 15.2912 28.0069C14.8154 28.0098 13.9695 28.0095 12.7535 28.006Z" fill="white"/>
</svg>
