<svg width="433" height="76" viewBox="0 0 433 76" fill="none" xmlns="http://www.w3.org/2000/svg">
<path d="M130.066 0.685547H84.0359C83.4925 0.685547 83.0521 1.12602 83.0521 1.66938V4.58771C83.0521 5.13106 83.4925 5.57154 84.0359 5.57154H130.066C130.609 5.57154 131.05 5.13106 131.05 4.58771V1.66938C131.05 1.12602 130.609 0.685547 130.066 0.685547Z" fill="#FEB4A7"/>
<path d="M167.032 4.15656C173.842 0.574979 183.072 -0.298309 190.545 0.464436C197.369 1.16454 203.935 4.0018 210.243 8.97623C211.15 9.69844 211.224 10.498 210.464 11.375L209.061 13C208.383 13.7811 207.668 13.8143 206.916 13.0995C202.664 9.03887 197.446 6.56639 191.263 5.68205C179.185 3.95022 169.144 7.04541 161.14 14.9676C156.063 19.9863 153.122 26.1693 152.319 33.5167C151.044 45.1016 154.346 54.5346 162.224 61.8157C174.195 72.881 195.895 73.5995 207.358 61.9483C207.793 61.5061 208.217 61.5172 208.629 61.9815L210.818 64.4466C211.179 64.8593 211.168 65.2572 210.785 65.6404C198.769 77.4464 178.927 78.0765 164.932 70.2611C152.662 63.4185 145.852 49.9876 146.538 36.0592C147.245 21.6002 154.077 10.966 167.032 4.15656Z" fill="#FE7345"/>
<path d="M8.62415 7.64962C8.9263 9.57306 9.6522 11.2201 10.8018 12.5909L34.8338 66.591C35.2392 67.4975 35.6482 67.4975 36.0609 66.591L43.213 50.9713C43.9278 50.0428 44.3589 48.9742 44.5063 47.7656L64.8793 1.76874C65.2183 0.994946 65.8153 0.615415 66.6701 0.630154L69.9201 0.685425C70.7234 0.700164 70.9481 1.1018 70.5944 1.89034L53.604 40.2818C53.464 40.5987 53.2834 40.8898 53.0623 41.1551C52.4949 41.8184 52.1375 42.6327 51.9901 43.5981C51.3415 44.6888 50.7299 45.7758 50.1551 46.8591C49.7276 47.6624 49.6244 48.4804 49.8455 49.3132C49.1896 50.087 48.7033 50.9382 48.3864 51.8667C47.3252 52.8395 46.8093 54.0223 46.8388 55.4151L44.241 60.6991C43.5335 61.5982 43.0987 62.7331 42.9366 64.1038L38.4044 74.1632C38.2349 74.5316 37.9511 74.7196 37.5532 74.7269L33.5515 74.8154C32.9178 74.8301 32.4756 74.5501 32.225 73.9753L0.222905 2.33251C-0.292961 1.16813 0.086568 0.585938 1.36149 0.585938H3.8266C4.36003 0.585572 4.88169 0.742741 5.32614 1.03773C5.77059 1.33271 6.11802 1.75238 6.32486 2.24408L8.62415 7.64962Z" fill="#FDD5CB"/>
<path d="M357.484 37.4665C357.528 42.4311 356.565 47.3557 354.652 51.9594C352.739 56.5631 349.913 60.7556 346.334 64.2975C342.756 67.8394 338.496 70.6615 333.797 72.6024C329.098 74.5434 324.053 75.5653 318.949 75.6099C313.845 75.6544 308.783 74.7207 304.051 72.862C299.319 71.0033 295.01 68.2561 291.37 64.7771C287.731 61.2981 284.831 57.1556 282.838 52.5861C280.845 48.0165 279.797 43.1094 279.754 38.1448C279.71 33.1803 280.673 28.2556 282.586 23.652C284.499 19.0483 287.325 14.8558 290.904 11.3139C294.482 7.77196 298.742 4.94994 303.441 3.00896C308.14 1.06798 313.185 0.0460502 318.289 0.0015215C323.393 -0.043018 328.455 0.890713 333.187 2.7494C337.919 4.60809 342.228 7.35534 345.868 10.8343C349.507 14.3132 352.407 18.4558 354.4 23.0253C356.393 27.5949 357.441 32.502 357.484 37.4665ZM351.771 37.8747C351.778 33.5705 350.927 29.3069 349.266 25.3274C347.604 21.348 345.166 17.7305 342.088 14.6816C339.011 11.6327 335.356 9.21206 331.331 7.55789C327.306 5.90373 322.991 5.04843 318.632 5.04083C314.273 5.03323 309.954 5.87347 305.924 7.51358C301.894 9.1537 298.23 11.5616 295.142 14.5997C292.054 17.6379 289.603 21.2468 287.928 25.2204C286.252 29.1941 285.386 33.4546 285.379 37.7588C285.371 42.063 286.222 46.3266 287.884 50.306C289.545 54.2855 291.984 57.903 295.061 60.9519C298.138 64.0008 301.794 66.4214 305.818 68.0756C309.843 69.7298 314.158 70.5851 318.518 70.5927C322.877 70.6003 327.195 69.76 331.226 68.1199C335.256 66.4798 338.92 64.0719 342.007 61.0338C345.095 57.9956 347.547 54.3867 349.222 50.4131C350.897 46.4394 351.763 42.1789 351.771 37.8747Z" fill="#FE0102"/>
<path d="M382.094 50.6176C381.994 50.6146 381.894 50.6321 381.8 50.6691C381.706 50.7062 381.621 50.7619 381.549 50.833C381.476 50.9041 381.419 50.9892 381.38 51.0832C381.341 51.1772 381.321 51.2783 381.321 51.3803L381.177 73.9642C381.169 74.598 380.849 74.9038 380.215 74.8817L377.02 74.7933C376.298 74.7711 375.937 74.3953 375.937 73.6657L375.948 46.5717C375.948 46.3489 376.037 46.1352 376.194 45.9776C376.352 45.8201 376.565 45.7316 376.788 45.7316C385.536 45.7684 394.424 45.7684 403.451 45.7316C418.607 45.6763 429.13 37.5514 426.444 21.2132C424.941 12.0713 416.639 6.36731 407.851 5.89197C401.498 5.55298 391.387 5.50508 377.518 5.74827C376.464 5.77038 375.93 5.25451 375.915 4.20067L375.893 2.0893C375.878 1.13864 376.35 0.655935 377.308 0.641195C386.903 0.501175 396.115 0.552761 404.943 0.795955C419.668 1.20496 432.148 9.06455 432.38 25.049C432.55 36.5897 427.181 44.4272 416.274 48.5615C416.133 48.6147 416.006 48.6996 415.903 48.8096C415.8 48.9196 415.724 49.0518 415.68 49.196C415.636 49.3402 415.626 49.4926 415.651 49.6413C415.675 49.79 415.733 49.9312 415.821 50.0538L432.546 73.2899C433.364 74.4248 433.077 74.9922 431.684 74.9922L429.418 75.0033C428.187 75.0107 427.214 74.5132 426.499 73.511L410.349 50.8608C410.21 50.6679 410.025 50.5132 409.81 50.4108C409.596 50.3084 409.359 50.2616 409.122 50.2749C399.645 50.6949 390.636 50.8092 382.094 50.6176Z" fill="#EA0000"/>
<path d="M248.337 5.95875C248.182 6.622 248.104 7.28157 248.104 7.93746C248.186 29.2132 248.182 51.1965 248.093 73.8872C248.093 74.4989 247.788 74.8047 247.176 74.8047H243.561C243.008 74.8047 242.732 74.5247 242.732 73.9646L242.677 6.32354C242.677 6.13883 242.602 5.9617 242.47 5.83109C242.337 5.70049 242.157 5.62712 241.969 5.62712L217.363 5.54974C217.052 5.54691 216.754 5.42289 216.533 5.20407C216.312 4.98524 216.185 4.68886 216.18 4.37798L216.124 1.72496C216.11 1.03959 216.449 0.696912 217.141 0.696912L273.982 0.674805C274.587 0.674805 274.885 0.976954 274.878 1.58125L274.834 4.82016C274.831 5.03228 274.743 5.23473 274.59 5.38368C274.437 5.53264 274.231 5.61612 274.016 5.61606L248.801 5.60501C248.695 5.60196 248.591 5.63542 248.506 5.6998C248.422 5.76417 248.362 5.85557 248.337 5.95875Z" fill="#FD4A02"/>
<path d="M130.21 34.6777H83.8709C83.3886 34.6777 82.9976 35.0687 82.9976 35.551V38.7125C82.9976 39.1948 83.3886 39.5858 83.8709 39.5858H130.21C130.693 39.5858 131.084 39.1948 131.084 38.7125V35.551C131.084 35.0687 130.693 34.6777 130.21 34.6777Z" fill="#FEB4A7"/>
<path d="M130.106 69.9111L84.0321 69.9915C83.4949 69.9924 83.0601 70.4287 83.061 70.9659L83.0663 73.9948C83.0672 74.5321 83.5035 74.9668 84.0408 74.9659L130.115 74.8855C130.652 74.8845 131.087 74.4482 131.086 73.911L131.081 70.8821C131.08 70.3449 130.643 69.9101 130.106 69.9111Z" fill="#FEB4A7"/>
</svg>
