<svg width="433" height="76" viewBox="0 0 433 76" fill="none" xmlns="http://www.w3.org/2000/svg">
<path d="M130.066 0.685547H84.0359C83.4925 0.685547 83.0521 1.12602 83.0521 1.66938V4.58771C83.0521 5.13106 83.4925 5.57154 84.0359 5.57154H130.066C130.609 5.57154 131.05 5.13106 131.05 4.58771V1.66938C131.05 1.12602 130.609 0.685547 130.066 0.685547Z" fill="#F7CDC7"/>
<path fill-rule="evenodd" clip-rule="evenodd" d="M357.484 37.4665C357.528 42.4311 356.565 47.3557 354.652 51.9594C352.739 56.5631 349.913 60.7556 346.334 64.2975C342.756 67.8394 338.496 70.6615 333.797 72.6024C329.098 74.5434 324.053 75.5653 318.949 75.6099C313.845 75.6544 308.783 74.7207 304.051 72.862C299.319 71.0033 295.01 68.2561 291.37 64.7771C287.731 61.2981 284.831 57.1556 282.838 52.5861C280.845 48.0165 279.797 43.1094 279.754 38.1448C279.71 33.1803 280.673 28.2556 282.586 23.652C284.499 19.0483 287.325 14.8558 290.904 11.3139C294.482 7.77196 298.742 4.94994 303.441 3.00896C308.14 1.06798 313.185 0.0460502 318.289 0.0015215C323.393 -0.043018 328.455 0.890713 333.187 2.7494C337.919 4.60809 342.228 7.35534 345.868 10.8343C349.507 14.3132 352.406 18.4558 354.4 23.0253C356.393 27.5949 357.441 32.502 357.484 37.4665ZM351.771 37.8747C351.778 33.5705 350.927 29.3069 349.266 25.3274C347.604 21.348 345.166 17.7305 342.088 14.6816C339.011 11.6327 335.356 9.21206 331.331 7.55789C327.306 5.90373 322.991 5.04843 318.632 5.04083C314.273 5.03323 309.954 5.87347 305.924 7.51358C301.894 9.1537 298.23 11.5616 295.142 14.5997C292.054 17.6379 289.603 21.2468 287.928 25.2204C286.252 29.1941 285.386 33.4546 285.379 37.7588C285.371 42.063 286.222 46.3266 287.884 50.306C289.545 54.2855 291.984 57.903 295.061 60.9519C298.138 64.0008 301.794 66.4214 305.818 68.0756C309.843 69.7298 314.158 70.5851 318.518 70.5927C322.877 70.6003 327.195 69.76 331.226 68.1199C335.256 66.4798 338.92 64.0719 342.007 61.0338C345.095 57.9956 347.547 54.3867 349.222 50.4131C350.897 46.4394 351.763 42.1789 351.771 37.8747ZM190.545 0.464665C183.072 -0.29808 173.842 0.575208 167.032 4.15679C154.077 10.9662 147.245 21.6004 146.538 36.0594C145.852 49.9878 152.662 63.4188 164.932 70.2614C178.927 78.0767 198.769 77.4466 210.785 65.6407C211.168 65.2574 211.179 64.8595 210.818 64.4468L208.629 61.9817C208.217 61.5174 207.793 61.5064 207.358 61.9485C195.895 73.5997 174.195 72.8812 162.224 61.8159C154.346 54.5348 151.044 45.1018 152.319 33.5169C153.122 26.1695 156.063 19.9865 161.14 14.9679C169.144 7.04564 179.185 3.95045 191.263 5.68228C197.446 6.56662 202.664 9.03909 206.916 13.0997C207.668 13.8145 208.383 13.7814 209.061 13.0002L210.464 11.3752C211.224 10.4983 211.15 9.69867 210.243 8.97645C203.935 4.00203 197.369 1.16477 190.545 0.464665ZM10.8018 12.591C9.6522 11.2203 8.9263 9.57322 8.62415 7.64978L6.32486 2.24424C6.11802 1.75254 5.77059 1.33288 5.32614 1.03789C4.88169 0.742902 4.36003 0.585733 3.8266 0.5861H1.36149C0.086568 0.5861 -0.292961 1.16829 0.222905 2.33267L32.225 73.9754C32.4756 74.5502 32.9178 74.8303 33.5515 74.8155L37.5532 74.7271C37.9511 74.7197 38.2349 74.5318 38.4044 74.1633L42.9366 64.104C43.0987 62.7332 43.5335 61.5983 44.241 60.6992L46.8388 55.4153C46.8093 54.0225 47.3252 52.8396 48.3864 51.8669C48.7033 50.9383 49.1896 50.0871 49.8455 49.3133C49.6244 48.4806 49.7276 47.6626 50.1551 46.8593C50.7299 45.776 51.3415 44.689 51.9901 43.5983C52.1375 42.6329 52.4949 41.8185 53.0623 41.1553C53.2834 40.89 53.464 40.5989 53.604 40.282L70.5944 1.8905C70.9481 1.10196 70.7234 0.700325 69.9201 0.685586L66.6701 0.630316C65.8153 0.615577 65.2183 0.995107 64.8793 1.76891L44.5063 47.7657C44.3589 48.9743 43.9278 50.0429 43.213 50.9715L36.0609 66.5912C35.6482 67.4976 35.2392 67.4976 34.8338 66.5912L10.8018 12.591ZM381.8 50.6686C381.894 50.6316 381.994 50.614 382.094 50.617C390.636 50.8086 399.645 50.6944 409.122 50.2743C409.359 50.261 409.596 50.3078 409.81 50.4102C410.025 50.5126 410.21 50.6673 410.349 50.8602L426.499 73.5104C427.214 74.5126 428.187 75.0101 429.418 75.0027L431.684 74.9916C433.077 74.9916 433.364 74.4242 432.546 73.2893L415.821 50.0532C415.733 49.9306 415.675 49.7894 415.651 49.6407C415.626 49.492 415.636 49.3397 415.68 49.1955C415.724 49.0512 415.8 48.919 415.903 48.809C416.006 48.699 416.133 48.6141 416.274 48.5609C427.181 44.4266 432.55 36.5891 432.38 25.0484C432.148 9.06396 419.668 1.20437 404.943 0.795365C396.115 0.552171 386.903 0.500585 377.308 0.640606C376.35 0.655345 375.878 1.13805 375.893 2.08871L375.915 4.20008C375.93 5.25392 376.464 5.76979 377.518 5.74768C391.387 5.50449 401.498 5.55239 407.851 5.89139C416.639 6.36672 424.941 12.0707 426.444 21.2126C429.13 37.5508 418.607 45.6757 403.451 45.731C394.424 45.7678 385.536 45.7678 376.788 45.731C376.565 45.731 376.352 45.8195 376.194 45.977C376.037 46.1346 375.948 46.3483 375.948 46.5711L375.937 73.6651C375.937 74.3947 376.298 74.7706 377.02 74.7927L380.215 74.8811C380.849 74.9032 381.169 74.5974 381.177 73.9636L381.32 51.3797C381.32 51.2777 381.341 51.1766 381.38 51.0826C381.419 50.9886 381.476 50.9035 381.549 50.8324C381.621 50.7613 381.706 50.7056 381.8 50.6686ZM248.337 5.95898C248.182 6.62224 248.104 7.28181 248.104 7.9377C248.186 29.2135 248.182 51.1967 248.093 73.8875C248.093 74.4991 247.788 74.805 247.176 74.805H243.561C243.008 74.805 242.732 74.5249 242.732 73.9649L242.677 6.32377C242.677 6.13907 242.602 5.96194 242.47 5.83133C242.337 5.70073 242.157 5.62736 241.969 5.62736L217.363 5.54998C217.052 5.54715 216.754 5.42313 216.533 5.2043C216.312 4.98548 216.185 4.6891 216.18 4.37822L216.124 1.7252C216.11 1.03983 216.449 0.697149 217.141 0.697149L273.982 0.675042C274.587 0.675042 274.885 0.977192 274.878 1.58149L274.834 4.82039C274.831 5.03252 274.743 5.23496 274.59 5.38392C274.437 5.53288 274.231 5.61636 274.016 5.6163L248.801 5.60525C248.695 5.6022 248.591 5.63566 248.506 5.70003C248.422 5.76441 248.362 5.85581 248.337 5.95898ZM83.8709 34.6772H130.21C130.693 34.6772 131.084 35.0682 131.084 35.5505V38.712C131.084 39.1943 130.693 39.5853 130.21 39.5853H83.8709C83.3886 39.5853 82.9976 39.1943 82.9976 38.712V35.5505C82.9976 35.0682 83.3886 34.6772 83.8709 34.6772Z" fill="url(#paint0_linear_536_49)"/>
<path d="M130.106 69.9111L84.0321 69.9915C83.4949 69.9924 83.0601 70.4287 83.061 70.9659L83.0663 73.9948C83.0672 74.5321 83.5035 74.9668 84.0408 74.9659L130.115 74.8855C130.652 74.8845 131.087 74.4482 131.086 73.911L131.081 70.8821C131.08 70.3449 130.643 69.9101 130.106 69.9111Z" fill="#F7CDC7"/>
<defs>
<linearGradient id="paint0_linear_536_49" x1="11.3859" y1="75.6114" x2="466.822" y2="75.6114" gradientUnits="userSpaceOnUse">
<stop stop-color="#FFF2EF"/>
<stop offset="1" stop-color="#D74535"/>
</linearGradient>
</defs>
</svg>
