<svg width="346" height="76" viewBox="0 0 346 76" fill="none" xmlns="http://www.w3.org/2000/svg">
<path fill-rule="evenodd" clip-rule="evenodd" d="M49 0H0V25H3V51H0V76H49V0ZM52 0V76H346V51H343V25H346V0H52ZM138 8H141V68H138V8ZM305 11H302V65H305V11ZM57 16H60V60H57V16ZM150 21H147V55H150V21ZM310 21H313V55H310V21ZM68 8H65V68H68V8ZM229 8H232V68H229V8ZM158 14H155V62H158V14ZM318 14H321V62H318V14ZM76 16H73V60H76V16ZM237 16H240V60H237V16ZM166 21H163V55H166V21ZM326 21H329V55H326V21ZM84 11H81V65H84V11ZM245 11H248V65H245V11ZM174 17H171V59H174V17ZM335 17H338V59H335V17ZM92 22H89V54H92V22ZM253 22H256V54H253V22ZM183 25H180V51H183V25ZM97 16H100V60H97V16ZM264 16H261V60H264V16ZM188 21H191V55H188V21ZM11 21H8V55H11V21ZM105 8H108V68H105V8ZM272 8H269V68H272V8ZM196 14H199V62H196V14ZM20 14H17V62H20V14ZM113 17H116V59H113V17ZM280 17H277V59H280V17ZM205 21H208V55H205V21ZM28 21H25V55H28V21ZM122 26H125V50H122V26ZM289 26H286V50H289V26ZM213 29H216V47H213V29ZM36 29H33V47H36V29ZM130 31H133V45H130V31ZM297 31H294V45H297V31ZM221 32H224V44H221V32ZM44 32H41V44H44V32Z" fill="#EAEAEA"/>
</svg>
