<svg width="346" height="76" viewBox="0 0 346 76" fill="none" xmlns="http://www.w3.org/2000/svg">
<path fill-rule="evenodd" clip-rule="evenodd" d="M346 0H0V31H3V45H0V76H346V45H343V31H346V0ZM51.6053 5H49V71H51.6053V5ZM138 8H141V68H138V8ZM305 11H302V65H305V11ZM57 16H60V60H57V16ZM150 21H147V55H150V21ZM311 3H314V73H311V3ZM68 8H65V68H68V8ZM229 8H232V68H229V8ZM158 14H155V62H158V14ZM319 15H322V60H319V15ZM76 16H73V60H76V16ZM237 16H240V60H237V16ZM166 21H163V55H166V21ZM327 23H330V53H327V23ZM84 11H81V65H84V11ZM245 11H248V65H245V11ZM174 17H171V59H174V17ZM335 28H338V48H335V28ZM92 22H89V54H92V22ZM253 22H256V54H253V22ZM183 25H180V51H183V25ZM97 21H100V55H97V21ZM264 16H261V60H264V16ZM188 21H191V55H188V21ZM12 28H9V48H12V28ZM105 31H108V45H105V31ZM272 8H269V68H272V8ZM196 14H199V62H196V14ZM20 23H17V53H20V23ZM113 17H116V59H113V17ZM280 17H277V59H280V17ZM205 21H208V55H205V21ZM28 15H25V60H28V15ZM122 26H125V50H122V26ZM289 26H286V50H289V26ZM213 29H216V47H213V29ZM36 29H33V47H36V29ZM130 31H133V45H130V31ZM297 31H294V45H297V31ZM221 32H224V44H221V32ZM44 20H41V55H44V20Z" fill="#EAEAEA"/>
</svg>
