<svg width="425" height="287" viewBox="0 0 425 287" fill="none" xmlns="http://www.w3.org/2000/svg">
<g opacity="0.05">
<path d="M88.5854 281.679C89.7807 281.679 205.062 279.818 205.062 123.616C205.122 106.092 200.387 88.8862 191.372 73.8639C182.357 58.8417 169.404 46.5767 153.92 38.3989C138.436 30.2211 121.01 26.4427 103.532 27.4733C86.0551 28.5039 69.1931 34.3043 54.7751 44.2454C40.3571 54.1865 28.9333 67.889 21.7426 83.8669C14.5518 99.8448 11.8685 117.488 13.9837 134.884C16.0988 152.28 22.9317 168.764 33.7414 182.549C44.551 196.334 58.9249 206.894 75.3042 213.083V268.386C75.3042 271.911 76.7034 275.293 79.1942 277.786C81.6849 280.279 85.063 281.679 88.5854 281.679ZM39.8432 123.616C39.8432 105.212 47.1474 87.5615 60.149 74.5477C73.1505 61.5339 90.7844 54.2228 109.171 54.2228C127.558 54.2228 145.192 61.5339 158.194 74.5477C171.195 87.5615 178.499 105.212 178.499 123.616C178.499 223.32 126.968 247.381 101.867 253.231V203.379C101.962 200.36 101.028 197.399 99.2171 194.982C97.4065 192.566 94.8279 190.839 91.9057 190.085C77.1194 186.304 63.9969 177.735 54.5808 165.713C45.1647 153.692 39.9833 138.891 39.8432 123.616Z" fill="#372B2E"/>
<path d="M295.11 281.679C296.305 281.679 411.719 279.818 411.719 123.616C411.77 106.1 407.031 88.9045 398.016 73.8918C389 58.879 376.053 46.6218 360.575 38.4482C345.098 30.2746 327.681 26.4961 310.211 27.5223C292.742 28.5485 275.886 34.3401 261.47 44.2697C247.054 54.1993 235.628 67.8883 228.428 83.8535C221.229 99.8187 218.532 117.451 220.63 134.841C222.727 152.231 229.538 168.715 240.326 182.507C251.114 196.299 265.466 206.873 281.829 213.084V268.386C281.829 271.911 283.228 275.293 285.719 277.786C288.209 280.279 291.588 281.679 295.11 281.679ZM246.501 123.616C246.501 105.212 253.805 87.5616 266.806 74.5477C279.808 61.5339 297.442 54.2228 315.829 54.2228C334.216 54.2228 351.85 61.5339 364.851 74.5477C377.853 87.5616 385.157 105.212 385.157 123.616C385.157 223.32 333.493 247.381 308.391 253.231V203.379C308.487 200.36 307.552 197.399 305.742 194.982C303.931 192.566 301.352 190.839 298.43 190.085C283.669 186.279 270.576 177.699 261.186 165.68C251.795 153.661 246.633 138.874 246.501 123.616Z" fill="#372B2E"/>
</g>
</svg>
