<svg width="35" height="31" viewBox="0 0 35 31" fill="none" xmlns="http://www.w3.org/2000/svg">
<path d="M10.2159 0.90909V30H7.55966V3.69318H7.3892L0.571023 8.22443V5.46875L7.44602 0.90909H10.2159ZM24.7597 30.3977C23.1403 30.3977 21.6915 30.071 20.4131 29.4176C19.1441 28.7547 18.1309 27.8456 17.3733 26.6903C16.6252 25.535 16.2275 24.214 16.1801 22.7273H18.7511C18.8364 24.2708 19.4424 25.5398 20.5693 26.5341C21.6962 27.5189 23.093 28.0114 24.7597 28.0114C26.057 28.0114 27.2123 27.7036 28.2256 27.0881C29.2388 26.4631 30.0295 25.6108 30.5977 24.5312C31.1754 23.4422 31.4642 22.2159 31.4642 20.8523C31.4547 19.4318 31.147 18.1818 30.5409 17.1023C29.9348 16.0133 29.111 15.161 28.0693 14.5455C27.0371 13.9299 25.8771 13.6222 24.5892 13.6222C23.6138 13.6127 22.6574 13.7737 21.7199 14.1051C20.7824 14.4366 20.0011 14.8627 19.3761 15.3835L16.7199 15.0426L18.467 0.90909H32.842V3.29545H20.6972L19.5324 13.0256H19.6744C20.3184 12.4858 21.0996 12.0455 22.0182 11.7045C22.9462 11.3636 23.9263 11.1932 24.9585 11.1932C26.6725 11.1932 28.2114 11.6051 29.575 12.429C30.9481 13.2528 32.0324 14.3892 32.8278 15.8381C33.6328 17.2775 34.0352 18.9347 34.0352 20.8097C34.0352 22.6468 33.6328 24.2898 32.8278 25.7386C32.0324 27.178 30.9339 28.3144 29.5324 29.1477C28.1403 29.9811 26.5494 30.3977 24.7597 30.3977Z" fill="#D74535"/>
</svg>
