<svg width="41" height="31" viewBox="0 0 41 31" fill="none" xmlns="http://www.w3.org/2000/svg">
<path d="M0.238637 30V28.054L9.74148 17.3722C10.982 15.9706 11.9811 14.7727 12.7386 13.7784C13.4962 12.7841 14.0455 11.8655 14.3864 11.0227C14.7367 10.1799 14.9119 9.30398 14.9119 8.39489C14.9119 7.28693 14.6515 6.32102 14.1307 5.49716C13.6193 4.66382 12.9138 4.01515 12.0142 3.55114C11.1146 3.08712 10.1013 2.85511 8.97443 2.85511C7.78125 2.85511 6.73485 3.11079 5.83523 3.62216C4.94508 4.13352 4.25379 4.83428 3.76136 5.72443C3.26894 6.61458 3.02273 7.63731 3.02273 8.79261H0.480114C0.480114 7.18276 0.849432 5.75758 1.58807 4.51705C2.33617 3.26705 3.35417 2.28693 4.64205 1.5767C5.93939 0.866476 7.4072 0.511363 9.04545 0.511363C10.6648 0.511363 12.1042 0.861742 13.3636 1.5625C14.6231 2.25379 15.6127 3.19602 16.3324 4.3892C17.0521 5.58239 17.4119 6.91761 17.4119 8.39489C17.4119 9.46496 17.2225 10.5019 16.8438 11.5057C16.4744 12.5095 15.8352 13.6269 14.9261 14.858C14.017 16.089 12.7576 17.5947 11.1477 19.375L3.93182 27.429V27.6136H18.321V30H0.238637ZM30.8868 30.3977C28.8413 30.3977 27.0942 29.8106 25.6453 28.6364C24.2059 27.4527 23.098 25.7434 22.3214 23.5085C21.5544 21.2737 21.1709 18.589 21.1709 15.4545C21.1709 12.3295 21.5544 9.65436 22.3214 7.42898C23.098 5.19413 24.2107 3.48485 25.6595 2.30114C27.1179 1.10795 28.8603 0.511363 30.8868 0.511363C32.9133 0.511363 34.651 1.10795 36.0999 2.30114C37.5582 3.48485 38.6709 5.19413 39.4379 7.42898C40.2144 9.65436 40.6027 12.3295 40.6027 15.4545C40.6027 18.589 40.2144 21.2737 39.4379 23.5085C38.6709 25.7434 37.5629 27.4527 36.1141 28.6364C34.6747 29.8106 32.9322 30.3977 30.8868 30.3977ZM30.8868 28.0114C33.1311 28.0114 34.883 26.9176 36.1425 24.7301C37.4019 22.5331 38.0317 19.4413 38.0317 15.4545C38.0317 12.803 37.7429 10.5398 37.1652 8.66477C36.597 6.7803 35.7779 5.34091 34.7078 4.34659C33.6472 3.35227 32.3735 2.85511 30.8868 2.85511C28.6614 2.85511 26.9143 3.96307 25.6453 6.17898C24.3764 8.38542 23.7419 11.4773 23.7419 15.4545C23.7419 18.1061 24.026 20.3693 24.5942 22.2443C25.1718 24.1193 25.991 25.5492 27.0516 26.5341C28.1216 27.5189 29.4 28.0114 30.8868 28.0114Z" fill="#D74535"/>
</svg>
