<svg width="69" height="25" viewBox="0 0 69 25" fill="none" xmlns="http://www.w3.org/2000/svg">
<g clip-path="url(#clip0_462_599)">
<path fill-rule="evenodd" clip-rule="evenodd" d="M22.781 7.69024L21.9869 7.71742L21.1381 9.53807C20.6726 10.5435 20.0155 11.9837 19.6595 12.7174C17.0036 18.3424 14.2655 24.3479 14.2655 24.5652V24.837L16.1274 24.8098L17.9893 24.7826L18.619 23.3968L19.2488 22.0109H22.781H26.3131L26.9702 23.4239L27.6274 24.837H29.5167C31.2964 24.837 31.406 24.837 31.406 24.6196C31.406 24.5109 30.1464 21.6848 28.5857 18.3424C27.025 15 25.3 11.2772 24.7524 10.0815C24.2048 8.85872 23.6845 7.82611 23.6024 7.77177C23.6298 7.69024 23.219 7.66307 22.781 7.69024ZM0 16.3315V24.8642L4.76429 24.837C9.39167 24.8098 9.52857 24.7826 10.1583 24.5381C11.5548 23.9674 12.4857 23.0707 12.9786 21.8479C13.1976 21.3044 13.225 20.9783 13.225 19.8913C13.225 18.7772 13.1976 18.5055 12.9786 18.0707C12.6774 17.3913 11.9107 16.5761 11.3357 16.2772L10.8976 16.0326L11.3631 15.6522C11.9107 15.1631 12.4583 14.1033 12.5679 13.3152C12.6774 12.5 12.4583 11.2772 12.0476 10.462C11.6643 9.67394 10.8702 8.8859 10.0488 8.45111C8.92619 7.88046 8.40595 7.82611 4.05238 7.82611H0V16.3315ZM33.1857 13.8315C33.1857 20.4348 33.2131 20.6794 33.8702 21.9294C34.5548 23.2337 36.1702 24.4022 37.8679 24.8098C38.9083 25.0544 41.0714 25.0544 42.1119 24.8098C43.7548 24.4022 45.3976 23.2065 46.0548 21.9294C46.6845 20.7065 46.6845 20.5707 46.6845 13.9402V7.82611H44.9595H43.2345L43.2071 13.7772C43.1798 19.212 43.1524 19.7555 42.9607 20.1902C42.4679 21.2772 41.4548 21.875 40.0036 21.875C38.6345 21.875 37.6762 21.3587 37.1012 20.2989C36.8548 19.8642 36.8548 19.7555 36.8274 13.8315L36.8 7.82611H34.9929H33.1857V13.8315ZM50.5179 16.3315V24.837H52.325H54.1321L54.1595 21.8207L54.1869 18.8044L57.2536 18.7772L60.3202 18.75V17.1739V15.5979H57.2262H54.1321V13.2881V10.9783H57.5548H60.9774V9.4022V7.82611H55.7476H50.5179V16.3315ZM8.15952 11.25C8.78929 11.712 8.92619 12.0381 8.92619 12.8805C8.92619 13.7229 8.7619 14.0489 8.15952 14.5109C7.88571 14.7283 7.66667 14.7555 5.72262 14.7826L3.5869 14.8098V12.8805V10.9511L5.72262 10.9783C7.66667 11.0326 7.88571 11.0598 8.15952 11.25ZM24.0131 16.087C24.6155 17.5272 25.1357 18.7772 25.1631 18.8587C25.2179 18.9674 24.6976 18.9946 22.8905 18.9946C20.6179 18.9946 20.5631 18.9946 20.6179 18.7772C20.7274 18.3424 22.781 13.4783 22.8631 13.4783C22.8905 13.4511 23.4107 14.6468 24.0131 16.087ZM8.73452 17.9892C9.36429 18.3424 9.61071 18.8044 9.61071 19.7283C9.61071 20.5979 9.47381 20.9239 8.84405 21.3859C8.54286 21.6033 8.35119 21.6305 6.07857 21.6576L3.61429 21.6848V19.7826C3.61429 18.7229 3.64167 17.8261 3.69643 17.7989C3.75119 17.7446 4.81905 17.7446 6.07857 17.7446C7.99524 17.7989 8.43333 17.8261 8.73452 17.9892Z" fill="#110D0E"/>
<path d="M49.477 0L49.1758 0.380435L55.4186 6.63043H62.1543V13.3967L68.4246 19.5652L68.8353 19.1033V0H49.477Z" fill="#FFD51C"/>
</g>
<defs>
<clipPath id="clip0_462_599">
<rect width="69" height="25" fill="white"/>
</clipPath>
</defs>
</svg>
