<svg width="38" height="38" viewBox="0 0 38 38" fill="none" xmlns="http://www.w3.org/2000/svg">
<path d="M24.4964 36.4992C24.0472 36.978 23.3349 37.1557 22.7548 36.8454C22.6152 36.7702 22.3945 36.5822 22.0926 36.2813C20.1119 34.3041 18.1292 32.3286 16.1447 30.3547C16.137 30.347 16.1274 30.3415 16.1169 30.3387C16.1065 30.336 16.0955 30.3361 16.0853 30.3392C8.05042 32.5843 0.329678 26.1323 1.04629 17.9429C1.67094 10.8084 8.50104 5.90561 15.4882 7.47312C15.4938 7.4744 15.4996 7.47439 15.5053 7.4731C15.5109 7.47181 15.5161 7.46928 15.5206 7.46568C15.5251 7.46209 15.5287 7.45753 15.5312 7.45235C15.5337 7.44716 15.5349 7.44149 15.5349 7.43575C15.5363 5.94416 15.5363 4.44857 15.5349 2.94899C15.5328 1.63744 16.2296 1 17.5256 1.00071C21.3753 1.00353 25.2251 1.0033 29.0748 1C29.5474 0.999535 29.891 1.03338 30.1055 1.10154C30.6451 1.2736 31.0016 1.63039 31.1751 2.17193C31.2426 2.383 31.2763 2.71183 31.2763 3.15842C31.2754 9.43785 31.2751 15.7168 31.2756 21.9953C31.2756 22.005 31.2796 22.0144 31.2866 22.0212C31.2936 22.0281 31.3032 22.032 31.3131 22.032C32.6086 22.0334 33.9081 22.0334 35.2117 22.032C35.6154 22.0315 35.9108 22.0649 36.0981 22.1321C36.8755 22.4106 37.2476 23.395 36.8203 24.1298C36.6746 24.3815 36.4086 24.6085 36.1872 24.8307C32.37 28.6591 28.5414 32.4759 24.7016 36.2813C24.6983 36.2841 24.6299 36.3568 24.4964 36.4992ZM16.7028 7.8144C22.0962 9.70627 25.4819 15.1605 24.5459 20.8565C23.8789 24.9153 21.1652 28.3133 17.3536 29.9048C17.3498 29.9064 17.3464 29.909 17.3437 29.9123C17.3411 29.9155 17.3393 29.9194 17.3386 29.9235C17.3378 29.9276 17.338 29.9319 17.3393 29.9359C17.3406 29.9399 17.3428 29.9435 17.3459 29.9464L23.2068 35.787C23.2329 35.8131 23.2639 35.8337 23.298 35.8478C23.3321 35.8619 23.3687 35.8692 23.4056 35.8692C23.4425 35.8692 23.4791 35.8619 23.5132 35.8478C23.5473 35.8337 23.5783 35.8131 23.6044 35.787C27.64 31.7649 31.684 27.7342 35.7366 23.6947C35.9134 23.5177 35.917 23.1602 35.6085 23.1602C34.2531 23.1616 32.8975 23.1616 31.5416 23.1602C30.634 23.1588 30.1437 22.7964 30.1437 21.8465C30.1437 15.4745 30.1437 9.10221 30.1437 2.72969C30.1437 2.23963 29.7844 2.13033 29.3451 2.13033C25.3345 2.12986 21.3239 2.1301 17.3133 2.13104C16.8379 2.13104 16.6682 2.39053 16.6675 2.85239C16.667 4.50193 16.667 6.13948 16.6675 7.76505C16.6675 7.78996 16.6792 7.80641 16.7028 7.8144ZM23.5584 18.9823C23.5584 17.5802 23.2814 16.1919 22.7431 14.8966C22.2048 13.6013 21.4158 12.4243 20.4212 11.4329C19.4266 10.4415 18.2458 9.65512 16.9463 9.11858C15.6468 8.58204 14.254 8.30588 12.8474 8.30588C10.0067 8.30588 7.28229 9.43071 5.27359 11.4329C3.26489 13.4351 2.13642 16.1507 2.13642 18.9823C2.13642 21.8139 3.26489 24.5294 5.27359 26.5317C7.28229 28.5339 10.0067 29.6587 12.8474 29.6587C15.6881 29.6587 18.4125 28.5339 20.4212 26.5317C22.4299 24.5294 23.5584 21.8139 23.5584 18.9823Z" fill="#2B2224" stroke="#D74535"/>
<path d="M22 19C22 20.1819 21.7672 21.3522 21.3149 22.4442C20.8626 23.5361 20.1997 24.5282 19.364 25.364C18.5282 26.1997 17.5361 26.8626 16.4441 27.3149C15.3522 27.7672 14.1819 28 13 28C10.6131 28 8.32387 27.0518 6.63604 25.364C4.94821 23.6761 4 21.3869 4 19C4 16.6131 4.94821 14.3239 6.63604 12.636C8.32387 10.9482 10.6131 10 13 10C14.1819 10 15.3522 10.2328 16.4441 10.6851C17.5361 11.1374 18.5282 11.8003 19.364 12.636C20.1997 13.4718 20.8626 14.4639 21.3149 15.5558C21.7672 16.6478 22 17.8181 22 19ZM20.8522 19C20.8522 16.9177 20.025 14.9206 18.5526 13.4482C17.0801 11.9757 15.0831 11.1485 13.0007 11.1485C10.9184 11.1485 8.92132 11.9757 7.44889 13.4482C5.97645 14.9206 5.14924 16.9177 5.14924 19C5.14924 21.0823 5.97645 23.0794 7.44889 24.5518C8.92132 26.0243 10.9184 26.8515 13.0007 26.8515C15.0831 26.8515 17.0801 26.0243 18.5526 24.5518C20.025 23.0794 20.8522 21.0823 20.8522 19Z" fill="#2B2224" stroke="#D74535"/>
<path d="M13.596 23.8948C13.5952 24.1295 13.622 24.4221 13.5543 24.6204C13.4068 25.0571 12.7634 25.1343 12.5192 24.7615C12.3665 24.529 12.3978 24.1866 12.406 23.8985C12.4065 23.8713 12.3931 23.8562 12.3658 23.8532C11.2095 23.7289 10.4517 23.1206 10.0923 22.0284C10.0007 21.7506 9.96494 21.2463 10.134 20.9938C10.3514 20.67 10.9501 20.693 11.1281 21.0584C11.151 21.1045 11.18 21.2587 11.2152 21.5211C11.3299 22.3723 11.9413 22.6634 12.7225 22.6597C13.5476 22.656 14.3466 22.754 14.7018 21.8561C14.8195 21.559 14.8411 20.8483 14.7435 20.5222C14.4248 19.4528 13.4493 19.5939 12.5534 19.5946C11.3821 19.5946 10.3738 18.8772 10.0893 17.7394C9.99324 17.3576 9.96122 16.5526 10.061 16.1411C10.347 14.9682 11.1125 14.3032 12.3576 14.1462C12.3864 14.1428 12.4013 14.1267 12.4023 14.098C12.4097 13.8499 12.3717 13.5536 12.4641 13.3449C12.6629 12.8993 13.3055 12.8785 13.5275 13.3234C13.6295 13.5283 13.6004 13.8581 13.5945 14.1069C13.5941 14.1211 13.5993 14.1349 13.609 14.1454C13.6187 14.156 13.6322 14.1624 13.6466 14.1633C14.9029 14.2361 15.7883 15.1162 15.967 16.3602C16.107 17.3383 14.9148 17.4727 14.8001 16.6454C14.669 15.7037 14.2386 15.3472 13.2944 15.3449C12.4626 15.3427 11.639 15.2462 11.2905 16.1656C11.181 16.453 11.1616 17.1638 11.2562 17.4794C11.6561 18.8215 13.004 18.2459 13.9519 18.4494C14.9945 18.6732 15.649 19.2933 15.9156 20.3098C16.0124 20.6774 16.0333 21.461 15.9395 21.8531C15.657 23.0394 14.8877 23.7069 13.6317 23.8554C13.6084 23.8584 13.5965 23.8715 13.596 23.8948Z" fill="#2B2224" stroke="#D74535"/>
</svg>
