<svg width="71" height="11" viewBox="0 0 71 11" fill="none" xmlns="http://www.w3.org/2000/svg">
<path d="M6.68463 2.46187C4.12144 1.17793 2.39702 2.07763 2.14398 4.93135C1.84877 8.23491 4.55254 8.6051 6.97047 7.71478C7.1829 7.63668 7.29068 7.71009 7.2938 7.93501L7.29849 9.14398C7.30161 9.33454 7.21258 9.46262 7.03139 9.52822C4.06052 10.6341 0.471114 9.9031 0.0540678 6.20123C-0.470754 1.50594 2.88904 -1.44149 7.35472 0.723397C7.53278 0.810867 7.58433 0.946759 7.50935 1.13107L7.03608 2.32598C7.0229 2.35877 7.00312 2.3885 6.97797 2.41332C6.95282 2.43815 6.92284 2.45753 6.88988 2.47028C6.85692 2.48302 6.82169 2.48885 6.78638 2.48741C6.75107 2.48596 6.71644 2.47727 6.68463 2.46187Z" fill="#FF9900"/>
<path d="M10.9254 2.04949L10.9301 3.73173C10.9301 3.77896 10.9489 3.82425 10.9822 3.85764C11.0156 3.89104 11.0609 3.9098 11.1082 3.9098L14.2009 3.92854C14.2242 3.92854 14.2474 3.93315 14.269 3.9421C14.2906 3.95105 14.3102 3.96416 14.3268 3.9807C14.3433 3.99723 14.3564 4.01686 14.3654 4.03846C14.3743 4.06007 14.3789 4.08322 14.3789 4.10661L14.3695 5.55455C14.3695 5.57794 14.3649 5.60109 14.356 5.6227C14.347 5.6443 14.3339 5.66393 14.3174 5.68046C14.3009 5.697 14.2812 5.71012 14.2596 5.71906C14.238 5.72801 14.2149 5.73262 14.1915 5.73262L11.1035 5.72793C11.0562 5.72793 11.011 5.74669 10.9776 5.78009C10.9442 5.81348 10.9254 5.85877 10.9254 5.906L10.9301 7.95374C10.9301 8.00097 10.9489 8.04626 10.9822 8.07965C11.0156 8.11304 11.0609 8.1318 11.1082 8.1318L14.4117 8.12712C14.4351 8.12712 14.4583 8.13173 14.4799 8.14067C14.5015 8.14962 14.5211 8.16274 14.5376 8.17927C14.5542 8.19581 14.5673 8.21544 14.5762 8.23704C14.5852 8.25865 14.5898 8.2818 14.5898 8.30518L14.5804 9.77187C14.5804 9.79526 14.5758 9.81841 14.5669 9.84002C14.5579 9.86162 14.5448 9.88125 14.5283 9.89779C14.5117 9.91432 14.4921 9.92743 14.4705 9.93638C14.4489 9.94533 14.4257 9.94994 14.4024 9.94994H8.99481C8.94758 9.94994 8.90229 9.93118 8.8689 9.89779C8.83551 9.86439 8.81675 9.8191 8.81675 9.77187L8.80737 0.296961C8.80737 0.273577 8.81198 0.250422 8.82093 0.228819C8.82988 0.207215 8.84299 0.187585 8.85953 0.17105C8.87606 0.154515 8.89569 0.141399 8.9173 0.13245C8.9389 0.123502 8.96205 0.118896 8.98544 0.118896H14.4211C14.4449 0.118888 14.4684 0.123644 14.4903 0.132884C14.5123 0.142125 14.5321 0.155662 14.5487 0.172696C14.5653 0.18973 14.5783 0.209917 14.587 0.232064C14.5956 0.254212 14.5998 0.277872 14.5992 0.301647L14.5757 1.73085C14.5757 1.75463 14.571 1.77818 14.5617 1.80009C14.5525 1.82201 14.539 1.84185 14.5219 1.85845C14.5049 1.87504 14.4847 1.88806 14.4626 1.89673C14.4404 1.9054 14.4168 1.90954 14.393 1.90891L11.1035 1.87143C11.0562 1.87143 11.011 1.89019 10.9776 1.92358C10.9442 1.95697 10.9254 2.00227 10.9254 2.04949Z" fill="#777777"/>
<path d="M18.1793 6.75412L18.1981 9.71093C18.2012 9.87025 18.1231 9.94991 17.9638 9.94991H16.319C16.1628 9.94991 16.0847 9.87181 16.0847 9.71561V0.451567C16.0847 0.285998 16.1675 0.192281 16.3331 0.170413C18.1543 -0.0607587 19.9412 0.0626369 21.6938 0.5406C21.9089 0.601124 22.0973 0.733321 22.2279 0.915472C23.5837 2.82732 23.2963 4.38929 21.3657 5.60138C21.2408 5.67948 21.2205 5.77789 21.3048 5.8966L23.9149 9.65938C24.0461 9.84994 23.9977 9.94522 23.7696 9.94522L22.0452 9.94991C21.8453 9.95303 21.6922 9.87025 21.586 9.70156L19.482 6.36987C19.3992 6.2412 19.277 6.14282 19.1336 6.08947C18.9903 6.03612 18.8334 6.03068 18.6867 6.07396C18.54 6.11724 18.4112 6.20692 18.3197 6.32954C18.2283 6.45216 18.179 6.60113 18.1793 6.75412ZM18.184 2.06821L18.1746 4.28933C18.1746 4.33283 18.1919 4.37454 18.2227 4.4053C18.2534 4.43606 18.2951 4.45334 18.3386 4.45334L19.5148 4.45802C19.6909 4.45874 19.8654 4.4324 20.0283 4.38051C20.1912 4.32861 20.3393 4.25217 20.4642 4.15556C20.5891 4.05895 20.6883 3.94407 20.7562 3.81747C20.824 3.69087 20.8592 3.55504 20.8597 3.41775V2.95853C20.8606 2.68153 20.7205 2.41536 20.4701 2.21854C20.2197 2.02172 19.8794 1.91034 19.5242 1.90889L18.348 1.9042C18.3045 1.9042 18.2628 1.92148 18.232 1.95224C18.2013 1.98299 18.184 2.02471 18.184 2.06821Z" fill="#777777"/>
<path d="M26.9981 7.3117C28.1836 8.63782 30.7749 8.53473 30.8124 6.31829C30.8405 4.34396 30.8468 2.36963 30.8312 0.395299C30.8312 0.210987 30.9233 0.118831 31.1076 0.118831L32.7102 0.109459C32.882 0.106335 32.9664 0.190681 32.9632 0.362498C32.9304 2.5555 33.4037 6.41669 32.4056 8.15517C30.7093 11.1167 24.8191 10.6434 24.716 6.3136C24.6723 4.33615 24.6489 2.35401 24.6458 0.367184C24.6458 0.198491 24.7301 0.114145 24.8988 0.114145L26.5717 0.109459C26.6904 0.109459 26.7513 0.168814 26.7544 0.287523L26.82 6.85717C26.82 7.03211 26.8794 7.18362 26.9981 7.3117Z" fill="#777777"/>
<path d="M38.7036 2.10113L38.7223 9.76728C38.7223 9.81575 38.7031 9.86223 38.6688 9.89651C38.6345 9.93078 38.5881 9.95003 38.5396 9.95003H36.7917C36.7433 9.95003 36.6968 9.93078 36.6625 9.89651C36.6282 9.86223 36.609 9.81575 36.609 9.76728L36.6184 2.10582C36.6184 2.05735 36.5991 2.01087 36.5648 1.97659C36.5306 1.94232 36.4841 1.92307 36.4356 1.92307L34.0786 1.93712C34.0301 1.93712 33.9836 1.91787 33.9494 1.8836C33.9151 1.84933 33.8958 1.80284 33.8958 1.75437L33.8865 0.29237C33.8865 0.243901 33.9057 0.197418 33.94 0.163145C33.9743 0.128873 34.0208 0.109619 34.0692 0.109619H48.8064C48.8308 0.109611 48.855 0.114489 48.8774 0.123965C48.8999 0.13344 48.9203 0.147322 48.9373 0.164791C48.9544 0.182261 48.9677 0.202964 48.9766 0.22568C48.9855 0.248396 48.9898 0.272665 48.9892 0.297055L48.947 1.75437C48.9458 1.80203 48.926 1.84731 48.8918 1.88058C48.8577 1.91384 48.8119 1.93245 48.7642 1.93244L46.3838 1.92307C46.3353 1.92307 46.2888 1.94232 46.2546 1.97659C46.2203 2.01087 46.201 2.05735 46.201 2.10582L46.2151 9.7626C46.2151 9.81106 46.1959 9.85755 46.1616 9.89182C46.1273 9.92609 46.0808 9.94535 46.0324 9.94535L44.2939 9.95003C44.2454 9.95003 44.1989 9.93078 44.1647 9.89651C44.1304 9.86223 44.1111 9.81575 44.1111 9.76728L44.1158 2.10113C44.1158 2.07713 44.1111 2.05337 44.1019 2.0312C44.0927 2.00902 44.0793 1.98888 44.0623 1.97191C44.0453 1.95494 44.0252 1.94148 44.003 1.93229C43.9808 1.92311 43.9571 1.91838 43.9331 1.91838H38.8863C38.8623 1.91838 38.8386 1.92311 38.8164 1.93229C38.7942 1.94148 38.7741 1.95494 38.7571 1.97191C38.7401 1.98888 38.7267 2.00902 38.7175 2.0312C38.7083 2.05337 38.7036 2.07713 38.7036 2.10113Z" fill="#777777"/>
<path d="M51.8145 0.118896H50.137C50.0154 0.118896 49.9167 0.2175 49.9167 0.339134V9.72033C49.9167 9.84196 50.0154 9.94057 50.137 9.94057H51.8145C51.9362 9.94057 52.0348 9.84196 52.0348 9.72033V0.339134C52.0348 0.2175 51.9362 0.118896 51.8145 0.118896Z" fill="#777777"/>
<path d="M60.8631 7.69142C61.0942 7.02915 60.8631 6.55119 60.1696 6.25754C58.7263 5.64368 57.0347 4.99703 56.6785 3.34758C55.9194 -0.204336 60.4038 -0.129362 62.4375 0.498551C62.5969 0.548534 62.6921 0.654748 62.7234 0.817193C62.814 1.28891 62.6937 1.745 62.3626 2.18548C62.2657 2.31356 62.1423 2.35261 61.9924 2.30263C61.2239 2.06365 59.2511 1.51539 58.7685 2.4104C58.7114 2.51604 58.6767 2.63226 58.6665 2.75187C58.6562 2.87148 58.6706 2.99192 58.7089 3.10571C58.7471 3.21951 58.8083 3.32424 58.8887 3.41341C58.9691 3.50257 59.0669 3.57427 59.1761 3.62405C60.7647 4.35037 63.2857 5.19383 63.0045 7.4009C62.6343 10.3343 58.8575 10.339 56.7629 9.45801C56.5723 9.37679 56.4771 9.23153 56.4771 9.02222V7.7008C56.4775 7.65872 56.4889 7.61748 56.5101 7.5811C56.5312 7.54472 56.5614 7.51444 56.5978 7.4932C56.6341 7.47197 56.6753 7.46051 56.7174 7.45993C56.7595 7.45936 56.801 7.4697 56.8379 7.48993C57.9844 8.10847 59.2027 8.28497 60.4929 8.01944C60.5775 8.001 60.656 7.96116 60.7208 7.90373C60.7856 7.8463 60.8346 7.7732 60.8631 7.69142Z" fill="#777777"/>
<path d="M65.7694 1.92307H63.5295C63.4727 1.92312 63.418 1.90121 63.377 1.86191C63.3359 1.82261 63.3117 1.76897 63.3093 1.7122L63.239 0.348601C63.2377 0.31929 63.2423 0.290024 63.2525 0.262522C63.2628 0.235019 63.2784 0.209834 63.2984 0.188444C63.3185 0.167055 63.3427 0.149894 63.3695 0.137967C63.3963 0.12604 63.4252 0.119589 63.4545 0.118991L70.5912 0.109619C70.6496 0.109619 70.7056 0.132823 70.7469 0.174125C70.7882 0.215428 70.8114 0.271446 70.8114 0.329857L70.8255 1.70283C70.8261 1.73254 70.8207 1.76208 70.8096 1.78965C70.7986 1.81723 70.782 1.84228 70.761 1.8633C70.74 1.88431 70.7149 1.90086 70.6874 1.91193C70.6598 1.92301 70.6302 1.92839 70.6005 1.92775L68.3185 1.9137C68.2601 1.9137 68.2041 1.9369 68.1628 1.9782C68.1215 2.0195 68.0983 2.07552 68.0983 2.13393V9.73448C68.0983 9.79289 68.0751 9.84891 68.0338 9.89021C67.9924 9.93152 67.9364 9.95472 67.878 9.95472L66.2098 9.94535C66.1514 9.94535 66.0954 9.92214 66.0541 9.88084C66.0128 9.83954 65.9896 9.78352 65.9896 9.72511V2.1433C65.9896 2.08489 65.9664 2.02888 65.9251 1.98757C65.8838 1.94627 65.8278 1.92307 65.7694 1.92307Z" fill="#777777"/>
</svg>
