<svg width="35" height="35" viewBox="0 0 35 35" fill="none" xmlns="http://www.w3.org/2000/svg">
<path d="M4.85614 26.7401C4.04598 28.1729 3.39193 29.6745 2.894 31.2449C2.68906 31.8905 2.55254 32.5491 2.48445 33.2209C2.46107 33.4539 2.40433 33.622 2.31423 33.7252C1.77779 34.3388 0.943214 33.8397 1.00305 33.0651C1.06185 32.3102 1.22897 31.546 1.47759 30.7818C2.04429 29.0375 2.78706 27.3626 3.70589 25.7572C3.72332 25.7269 3.73081 25.6919 3.72729 25.6571C3.72377 25.6224 3.70943 25.5896 3.68629 25.5634C0.72967 22.2384 0.339718 17.5129 1.91809 13.4774C4.40945 7.10694 11.2914 3.9934 17.4821 2.57534C20.2943 1.9318 23.1391 1.49693 26.0167 1.27072C28.4197 1.08234 30.8268 0.992269 33.238 1.00052C33.9777 1.00361 34.2438 1.82042 33.7445 2.32576C33.3945 2.68053 33.0496 3.0408 32.7098 3.40658C29.8096 6.5294 27.8279 10.1603 26.7646 14.2993C26.3509 15.9092 25.9424 18.0028 25.3224 19.9468C24.843 21.4532 24.1914 22.8806 23.3675 24.2288C21.5133 27.2643 18.8036 28.9969 15.2383 29.4267C14.4853 29.5181 13.4278 29.5136 12.0661 29.4132C10.9121 29.3287 9.71128 29.0739 8.46371 28.649C7.1735 28.209 5.99436 27.5679 4.92629 26.7256C4.8974 26.703 4.87402 26.7078 4.85614 26.7401ZM21.9387 9.50577C21.8575 9.69622 21.7028 9.84817 21.4745 9.96162C14.8525 13.268 9.41692 18.8876 5.66699 25.2684C5.6561 25.287 5.65229 25.309 5.65627 25.3302C5.66025 25.3514 5.67175 25.3705 5.68865 25.3839C8.26357 27.4486 11.5544 28.1911 14.7813 27.9447C19.208 27.6074 21.882 24.7197 23.3995 20.7657C24.2691 18.4999 24.7272 16.3238 25.2884 14.0704C26.3757 9.70997 28.4276 5.87555 31.444 2.56709C31.4681 2.54096 31.4622 2.5279 31.4265 2.5279C27.3956 2.55127 23.4012 2.93527 19.4432 3.67988C16.6854 4.19897 14.1947 4.94942 11.9712 5.93124C9.43962 7.05021 7.0834 8.58481 5.29251 10.7196C2.12029 14.5025 1.37134 20.1428 4.51777 24.201C4.5231 24.2079 4.53005 24.2135 4.53802 24.2172C4.54599 24.2208 4.55474 24.2225 4.5635 24.2219C4.57225 24.2214 4.58075 24.2188 4.58825 24.2142C4.59574 24.2097 4.602 24.2034 4.60649 24.1958C7.50877 19.392 11.1614 15.2811 15.5643 11.8634C17.0272 10.7282 18.7572 9.6591 20.7544 8.65597C20.9827 8.54115 21.1794 8.49371 21.3445 8.51365C21.818 8.5714 22.1285 9.0654 21.9387 9.50577Z" fill="#D74535" stroke="#D74535"/>
</svg>
