<svg width="69" height="49" viewBox="0 0 69 49" fill="none" xmlns="http://www.w3.org/2000/svg">
<path d="M4.89489 46.1193C4.29261 46.1193 3.75568 46.0085 3.28409 45.7869C2.81534 45.5653 2.44318 45.2599 2.16761 44.8707C1.89205 44.4815 1.74858 44.0355 1.73722 43.5327H3.52699C3.54688 43.8707 3.68892 44.1449 3.95312 44.3551C4.21733 44.5653 4.53125 44.6705 4.89489 44.6705C5.18466 44.6705 5.44034 44.6065 5.66193 44.4787C5.88636 44.348 6.06108 44.1676 6.18608 43.9375C6.31392 43.7045 6.37784 43.4375 6.37784 43.1364C6.37784 42.8295 6.3125 42.5597 6.18182 42.3267C6.05398 42.0937 5.87642 41.9119 5.64915 41.7812C5.42188 41.6506 5.16193 41.5838 4.86932 41.581C4.61364 41.581 4.36506 41.6335 4.12358 41.7386C3.88494 41.8437 3.69886 41.9872 3.56534 42.169L1.92472 41.875L2.33807 37.2727H7.6733V38.7812H3.85938L3.63352 40.9673H3.68466C3.83807 40.7514 4.0696 40.5724 4.37926 40.4304C4.68892 40.2884 5.03551 40.2173 5.41903 40.2173C5.9446 40.2173 6.41335 40.3409 6.82528 40.5881C7.23722 40.8352 7.5625 41.1747 7.80114 41.6065C8.03977 42.0355 8.15767 42.5298 8.15483 43.0895C8.15767 43.6776 8.02131 44.2003 7.74574 44.6577C7.47301 45.1122 7.09091 45.4702 6.59943 45.7315C6.1108 45.9901 5.54261 46.1193 4.89489 46.1193ZM13.3281 43.9929L15.1009 39.4545H16.4815L13.929 46H12.723L10.2301 39.4545H11.6065L13.3281 43.9929ZM11.1932 39.4545V46H9.45881V39.4545H11.1932ZM15.5526 46V39.4545H17.2656V46H15.5526ZM26.8888 37.0511L27.4428 38.2358C27.2582 38.3892 27.0536 38.5028 26.8292 38.5767C26.6048 38.6477 26.3363 38.6946 26.0238 38.7173C25.7141 38.7401 25.3363 38.7557 24.8903 38.7642C24.3846 38.7699 23.9727 38.8509 23.6545 39.0071C23.3363 39.1634 23.0948 39.4091 22.93 39.7443C22.7653 40.0767 22.6573 40.5114 22.6062 41.0483H22.6701C22.8661 40.6477 23.1417 40.3381 23.4968 40.1193C23.8548 39.9006 24.2965 39.7912 24.8221 39.7912C25.3789 39.7912 25.8661 39.9134 26.2837 40.1577C26.7042 40.402 27.0309 40.7528 27.2638 41.2102C27.4968 41.6676 27.6133 42.2159 27.6133 42.8551C27.6133 43.5199 27.4826 44.098 27.2212 44.5895C26.9627 45.0781 26.5948 45.4574 26.1175 45.7273C25.6403 45.9943 25.0721 46.1278 24.413 46.1278C23.7511 46.1278 23.18 45.9886 22.6999 45.7102C22.2227 45.4318 21.8533 45.0213 21.592 44.4787C21.3335 43.9361 21.2042 43.2685 21.2042 42.4759V41.9389C21.2042 40.3622 21.511 39.1932 22.1246 38.4318C22.7383 37.6705 23.6403 37.2841 24.8306 37.2727C25.1545 37.267 25.4471 37.2656 25.7085 37.2685C25.9698 37.2713 26.1985 37.2585 26.3945 37.2301C26.5934 37.2017 26.7582 37.142 26.8888 37.0511ZM24.4215 44.7216C24.6999 44.7216 24.9386 44.6491 25.1374 44.5043C25.3391 44.3594 25.494 44.152 25.6019 43.8821C25.7127 43.6122 25.7681 43.2898 25.7681 42.9148C25.7681 42.5426 25.7127 42.2273 25.6019 41.9688C25.494 41.7074 25.3391 41.5085 25.1374 41.3722C24.9357 41.2358 24.6942 41.1676 24.413 41.1676C24.2028 41.1676 24.0138 41.206 23.8462 41.2827C23.6786 41.3594 23.5352 41.473 23.4158 41.6236C23.2994 41.7713 23.2085 41.9545 23.1431 42.1733C23.0806 42.3892 23.0494 42.6364 23.0494 42.9148C23.0494 43.4744 23.1701 43.9162 23.4116 44.2401C23.6559 44.5611 23.9925 44.7216 24.4215 44.7216ZM31.8011 46.1278C31.1278 46.1278 30.5483 45.9915 30.0625 45.7188C29.5795 45.4432 29.2074 45.054 28.946 44.5511C28.6847 44.0455 28.554 43.4474 28.554 42.7571C28.554 42.0838 28.6847 41.4929 28.946 40.9844C29.2074 40.4759 29.5753 40.0795 30.0497 39.7955C30.527 39.5114 31.0866 39.3693 31.7287 39.3693C32.1605 39.3693 32.5625 39.4389 32.9347 39.5781C33.3097 39.7145 33.6364 39.9205 33.9148 40.196C34.196 40.4716 34.4148 40.8182 34.571 41.2358C34.7273 41.6506 34.8054 42.1364 34.8054 42.6932V43.1918H29.2784V42.0668H33.0966C33.0966 41.8054 33.0398 41.5739 32.9261 41.3722C32.8125 41.1705 32.6548 41.0128 32.4531 40.8991C32.2543 40.7827 32.0227 40.7244 31.7585 40.7244C31.483 40.7244 31.2386 40.7884 31.0256 40.9162C30.8153 41.0412 30.6506 41.2102 30.5312 41.4233C30.4119 41.6335 30.3509 41.8679 30.348 42.1264V43.196C30.348 43.5199 30.4077 43.7997 30.527 44.0355C30.6491 44.2713 30.821 44.4531 31.0426 44.581C31.2642 44.7088 31.527 44.7727 31.831 44.7727C32.0327 44.7727 32.2173 44.7443 32.3849 44.6875C32.5526 44.6307 32.696 44.5455 32.8153 44.4318C32.9347 44.3182 33.0256 44.179 33.0881 44.0142L34.767 44.125C34.6818 44.5284 34.5071 44.8807 34.2429 45.1818C33.9815 45.4801 33.6435 45.7131 33.2287 45.8807C32.8168 46.0455 32.3409 46.1278 31.8011 46.1278ZM35.6534 44.1463H37.4134C37.4219 44.3622 37.5185 44.5327 37.7031 44.6577C37.8878 44.7827 38.1264 44.8452 38.419 44.8452C38.7145 44.8452 38.9631 44.777 39.1648 44.6406C39.3665 44.5014 39.4673 44.3026 39.4673 44.044C39.4673 43.8849 39.4276 43.7472 39.348 43.6307C39.2685 43.5114 39.1577 43.4176 39.0156 43.3494C38.8736 43.2812 38.7088 43.2472 38.5213 43.2472H37.5795V42.0582H38.5213C38.8026 42.0582 39.0185 41.9929 39.169 41.8622C39.3224 41.7315 39.3991 41.5682 39.3991 41.3722C39.3991 41.1506 39.3196 40.973 39.1605 40.8395C39.0043 40.7031 38.7926 40.6349 38.5256 40.6349C38.2557 40.6349 38.0313 40.696 37.8523 40.8182C37.6761 40.9375 37.5852 41.0937 37.5795 41.2869H35.8281C35.8338 40.8949 35.9517 40.5554 36.1818 40.2685C36.4148 39.9815 36.7273 39.7599 37.1193 39.6037C37.5142 39.4474 37.956 39.3693 38.4446 39.3693C38.9787 39.3693 39.4389 39.4446 39.8253 39.5952C40.2145 39.7429 40.5128 39.9545 40.7202 40.2301C40.9304 40.5057 41.0355 40.8338 41.0355 41.2145C41.0355 41.5611 40.9219 41.8509 40.6946 42.0838C40.4673 42.3168 40.1491 42.483 39.7401 42.5824V42.6506C40.0099 42.6676 40.2543 42.7401 40.473 42.8679C40.6918 42.9957 40.8665 43.1719 40.9972 43.3963C41.1278 43.6179 41.1932 43.8807 41.1932 44.1847C41.1932 44.5909 41.0739 44.9389 40.8352 45.2287C40.5994 45.5185 40.2727 45.7415 39.8551 45.8977C39.4403 46.0511 38.9645 46.1278 38.4276 46.1278C37.9048 46.1278 37.4361 46.0526 37.0213 45.902C36.6094 45.7486 36.2813 45.5241 36.0369 45.2287C35.7955 44.9332 35.6676 44.5724 35.6534 44.1463ZM45.0838 39.4545H46.8182V44.5597H48.6634V39.4545H50.3977V44.5597H52.2429V39.4545H53.9773V46H45.0838V39.4545ZM55.3846 46V39.4545H58.1758C58.9826 39.4545 59.6204 39.608 60.0891 39.9148C60.5579 40.2216 60.7923 40.6577 60.7923 41.223C60.7923 41.5781 60.6602 41.8736 60.396 42.1094C60.1317 42.3452 59.7653 42.5043 59.2965 42.5866C59.6886 42.6151 60.0224 42.7045 60.2979 42.8551C60.5763 43.0028 60.788 43.1946 60.9329 43.4304C61.0806 43.6662 61.1545 43.9276 61.1545 44.2145C61.1545 44.5866 61.055 44.9062 60.8562 45.1733C60.6602 45.4403 60.3718 45.6449 59.9911 45.7869C59.6133 45.929 59.1516 46 58.6062 46H55.3846ZM57.0763 44.6406H58.6062C58.859 44.6406 59.0565 44.581 59.1985 44.4616C59.3434 44.3395 59.4158 44.1733 59.4158 43.9631C59.4158 43.7301 59.3434 43.5469 59.1985 43.4134C59.0565 43.2798 58.859 43.2131 58.6062 43.2131H57.0763V44.6406ZM57.0763 42.1477H58.2141C58.396 42.1477 58.5508 42.1222 58.6786 42.071C58.8093 42.017 58.9087 41.9403 58.9769 41.8409C59.0479 41.7415 59.0835 41.6236 59.0835 41.4872C59.0835 41.2855 59.0025 41.1278 58.8406 41.0142C58.6786 40.9006 58.457 40.8438 58.1758 40.8438H57.0763V42.1477ZM64.1651 46.1236C63.7475 46.1236 63.3754 46.0511 63.0487 45.9062C62.7219 45.7585 62.4634 45.5412 62.2731 45.2543C62.0856 44.9645 61.9918 44.6037 61.9918 44.1719C61.9918 43.8082 62.0586 43.5028 62.1921 43.2557C62.3256 43.0085 62.5075 42.8097 62.7376 42.6591C62.9677 42.5085 63.229 42.3949 63.5217 42.3182C63.8171 42.2415 64.1268 42.1875 64.4506 42.1562C64.8313 42.1165 65.1381 42.0795 65.3711 42.0455C65.604 42.0085 65.7731 41.9545 65.8782 41.8835C65.9833 41.8125 66.0359 41.7074 66.0359 41.5682V41.5426C66.0359 41.2727 65.9506 41.0639 65.7802 40.9162C65.6126 40.7685 65.3739 40.6946 65.0643 40.6946C64.7376 40.6946 64.4776 40.767 64.2844 40.9119C64.0913 41.054 63.9634 41.233 63.9009 41.4489L62.2219 41.3125C62.3072 40.9148 62.4748 40.571 62.7248 40.2812C62.9748 39.9886 63.2972 39.7642 63.6921 39.608C64.0898 39.4489 64.5501 39.3693 65.0728 39.3693C65.4364 39.3693 65.7844 39.4119 66.1168 39.4972C66.4521 39.5824 66.7489 39.7145 67.0075 39.8935C67.2688 40.0724 67.4748 40.3026 67.6254 40.5838C67.7759 40.8622 67.8512 41.196 67.8512 41.5852V46H66.1296V45.0923H66.0785C65.9734 45.2969 65.8327 45.4773 65.6566 45.6335C65.4805 45.7869 65.2688 45.9077 65.0217 45.9957C64.7745 46.081 64.489 46.1236 64.1651 46.1236ZM64.685 44.8707C64.9521 44.8707 65.1879 44.8182 65.3924 44.7131C65.5969 44.6051 65.7575 44.4602 65.8739 44.2784C65.9904 44.0966 66.0487 43.8906 66.0487 43.6605V42.9659C65.9918 43.0028 65.9137 43.0369 65.8143 43.0682C65.7177 43.0966 65.6083 43.1236 65.4862 43.1491C65.364 43.1719 65.2418 43.1932 65.1197 43.2131C64.9975 43.2301 64.8867 43.2457 64.7873 43.2599C64.5742 43.2912 64.3881 43.3409 64.229 43.4091C64.07 43.4773 63.9464 43.5696 63.8583 43.6861C63.7702 43.7997 63.7262 43.9418 63.7262 44.1122C63.7262 44.3594 63.8157 44.5483 63.9947 44.679C64.1765 44.8068 64.4066 44.8707 64.685 44.8707Z" fill="#D74535"/>
<path d="M34.0767 29.2983C32.8267 29.2983 31.701 29.0497 30.6996 28.5526C29.6982 28.0554 28.8956 27.3736 28.2919 26.5071C27.6882 25.6406 27.358 24.6534 27.3011 23.5455H29.858C29.9574 24.5327 30.4048 25.3494 31.2003 25.9957C32.0028 26.6349 32.9616 26.9545 34.0767 26.9545C34.9716 26.9545 35.767 26.745 36.4631 26.326C37.1662 25.907 37.7166 25.3317 38.1143 24.6001C38.5192 23.8615 38.7216 23.027 38.7216 22.0966C38.7216 21.1449 38.5121 20.2962 38.093 19.5504C37.6811 18.7976 37.1129 18.2045 36.3885 17.7713C35.6641 17.3381 34.8366 17.1179 33.9062 17.1108C33.2386 17.1037 32.5533 17.2067 31.8501 17.4197C31.147 17.6257 30.5682 17.892 30.1136 18.2188L27.642 17.9205L28.9631 7.18182H40.2983V9.52557H31.179L30.4119 15.9602H30.5398C30.9872 15.6051 31.5483 15.3104 32.223 15.076C32.8977 14.8416 33.6009 14.7244 34.3324 14.7244C35.6676 14.7244 36.8572 15.044 37.9013 15.6832C38.9524 16.3153 39.7763 17.1818 40.3729 18.2827C40.9766 19.3835 41.2784 20.6406 41.2784 22.054C41.2784 23.446 40.9659 24.6889 40.3409 25.7827C39.723 26.8693 38.8707 27.7287 37.7841 28.3608C36.6974 28.9858 35.4616 29.2983 34.0767 29.2983Z" fill="#D74535"/>
<path d="M66.4243 18.4243C66.6586 18.1899 66.6586 17.8101 66.4243 17.5757L62.6059 13.7574C62.3716 13.523 61.9917 13.523 61.7574 13.7574C61.523 13.9917 61.523 14.3716 61.7574 14.6059L65.1515 18L61.7574 21.3941C61.523 21.6284 61.523 22.0083 61.7574 22.2426C61.9917 22.477 62.3716 22.477 62.6059 22.2426L66.4243 18.4243ZM49 18.6H66V17.4H49V18.6Z" fill="#D74535"/>
<path d="M0.575735 17.5757C0.341421 17.8101 0.341421 18.1899 0.575735 18.4243L4.39411 22.2426C4.62843 22.477 5.00833 22.477 5.24264 22.2426C5.47696 22.0083 5.47696 21.6284 5.24264 21.3941L1.84853 18L5.24264 14.6059C5.47696 14.3716 5.47696 13.9917 5.24264 13.7574C5.00833 13.523 4.62843 13.523 4.39411 13.7574L0.575735 17.5757ZM18 17.4L1 17.4V18.6L18 18.6V17.4Z" fill="#D74535"/>
</svg>
