<svg width="80" height="19" viewBox="0 0 80 19" fill="none" xmlns="http://www.w3.org/2000/svg">
<path d="M9.68733 16.3369L7.87548 16.3445C7.86054 16.3445 7.84622 16.3504 7.83566 16.361C7.8251 16.3716 7.81917 16.3859 7.81917 16.4008V18.9394C7.81917 18.9543 7.81323 18.9686 7.80267 18.9792C7.79211 18.9897 7.77778 18.9957 7.76285 18.9957H0.2653C0.250364 18.9957 0.23604 18.9897 0.225479 18.9792C0.214918 18.9686 0.208984 18.9543 0.208984 18.9394V0.0573986C0.208984 0.0424628 0.214918 0.0281387 0.225479 0.0175775C0.23604 0.00701626 0.250364 0.00108302 0.2653 0.00108302L5.18641 0C5.19381 0 5.20113 0.00145671 5.20796 0.00428683C5.2148 0.00711695 5.221 0.0112651 5.22623 0.0164945C5.23146 0.0217238 5.23561 0.027932 5.23844 0.0347645C5.24127 0.0415971 5.24273 0.0489201 5.24273 0.0563156V15.6622C5.24273 15.6696 5.24418 15.6769 5.24701 15.6838C5.24985 15.6906 5.25399 15.6968 5.25922 15.702C5.26445 15.7073 5.27066 15.7114 5.27749 15.7142C5.28433 15.7171 5.29165 15.7185 5.29904 15.7185L9.68841 15.725C9.70334 15.725 9.71767 15.7191 9.72823 15.7085C9.73879 15.698 9.74472 15.6837 9.74472 15.6687L9.74364 13.9143C9.74364 13.8993 9.73771 13.885 9.72715 13.8745C9.71658 13.8639 9.70226 13.858 9.68733 13.858L7.21269 13.8547C7.20529 13.8547 7.19797 13.8533 7.19114 13.8504C7.18431 13.8476 7.1781 13.8434 7.17287 13.8382C7.16764 13.833 7.16349 13.8268 7.16066 13.8199C7.15783 13.8131 7.15637 13.8058 7.15637 13.7984V0.0584815C7.15637 0.0510861 7.15783 0.0437631 7.16066 0.0369306C7.16349 0.0300981 7.16764 0.0238899 7.17287 0.0186605C7.1781 0.0134311 7.18431 0.00928288 7.19114 0.00645276C7.19797 0.00362263 7.20529 0.00216603 7.21269 0.00216603L19.1581 0.00108302C19.173 0.00108302 19.1873 0.00701626 19.1979 0.0175775C19.2085 0.0281387 19.2144 0.0424628 19.2144 0.0573986L19.2155 3.2219C19.2155 3.23684 19.2096 3.25116 19.199 3.26172C19.1884 3.27228 19.1741 3.27821 19.1592 3.27821L7.87548 3.27713C7.86054 3.27713 7.84622 3.28307 7.83566 3.29363C7.8251 3.30419 7.81917 3.31851 7.81917 3.33345V13.1627C7.81917 13.1776 7.8251 13.1919 7.83566 13.2025C7.84622 13.2131 7.86054 13.219 7.87548 13.219L9.68949 13.2277C9.70443 13.2277 9.71875 13.2217 9.72931 13.2112C9.73987 13.2006 9.74581 13.1863 9.74581 13.1713L9.74364 10.1747C9.74364 10.1673 9.7451 10.16 9.74793 10.1532C9.75076 10.1463 9.75491 10.1401 9.76013 10.1349C9.76536 10.1297 9.77157 10.1255 9.77841 10.1227C9.78524 10.1198 9.79256 10.1184 9.79996 10.1184L14.1666 10.1238C14.1815 10.1238 14.1958 10.1179 14.2064 10.1073C14.217 10.0967 14.2229 10.0824 14.2229 10.0675V8.30546C14.2229 8.29052 14.217 8.2762 14.2064 8.26564C14.1958 8.25508 14.1815 8.24914 14.1666 8.24914L9.79887 8.25781C9.78394 8.25781 9.76961 8.25187 9.75905 8.24131C9.74849 8.23075 9.74256 8.21643 9.74256 8.20149L9.74797 5.18211C9.74797 5.16718 9.75391 5.15285 9.76447 5.14229C9.77503 5.13173 9.78935 5.1258 9.80429 5.1258L19.157 5.12363C19.1644 5.12363 19.1717 5.12509 19.1786 5.12792C19.1854 5.13075 19.1916 5.1349 19.1968 5.14013C19.2021 5.14536 19.2062 5.15156 19.209 5.1584C19.2119 5.16523 19.2133 5.17255 19.2133 5.17995V18.9437C19.2133 18.9511 19.2119 18.9584 19.209 18.9652C19.2062 18.9721 19.2021 18.9783 19.1968 18.9835C19.1916 18.9887 19.1854 18.9929 19.1786 18.9957C19.1717 18.9985 19.1644 19 19.157 19H9.8032C9.78827 19 9.77394 18.9941 9.76338 18.9835C9.75282 18.9729 9.74689 18.9586 9.74689 18.9437L9.74364 16.3932C9.74364 16.3858 9.74218 16.3785 9.73935 16.3717C9.73652 16.3649 9.73238 16.3586 9.72715 16.3534C9.72192 16.3482 9.71571 16.344 9.70888 16.3412C9.70204 16.3384 9.69472 16.3369 9.68733 16.3369Z" fill="#110D0E"/>
<path d="M25.6854 13.8602L29.7401 13.8634C29.757 13.8634 29.7733 13.8702 29.7853 13.8822C29.7972 13.8941 29.804 13.9104 29.804 13.9273L29.8051 15.6558C29.8051 15.6727 29.7983 15.689 29.7863 15.701C29.7744 15.713 29.7581 15.7197 29.7412 15.7197L23.7717 15.7208C23.7548 15.7208 23.7385 15.714 23.7265 15.7021C23.7146 15.6901 23.7078 15.6738 23.7078 15.6569L23.7089 3.32702C23.7089 3.31007 23.7156 3.29382 23.7276 3.28184C23.7396 3.26985 23.7559 3.26312 23.7728 3.26312L25.5554 3.26854C25.5638 3.26854 25.5721 3.27019 25.5799 3.2734C25.5876 3.27661 25.5947 3.28132 25.6006 3.28725C25.6065 3.29319 25.6112 3.30023 25.6144 3.30798C25.6177 3.31573 25.6193 3.32404 25.6193 3.33243L25.6215 13.7963C25.6215 13.8132 25.6282 13.8295 25.6402 13.8415C25.6522 13.8535 25.6684 13.8602 25.6854 13.8602Z" fill="#110D0E"/>
<path d="M58.9846 10.1748L58.9878 15.6634C58.9878 15.6784 58.9819 15.6927 58.9713 15.7032C58.9608 15.7138 58.9464 15.7197 58.9315 15.7197L57.1012 15.7176C57.0863 15.7176 57.072 15.7116 57.0614 15.7011C57.0509 15.6905 57.0449 15.6762 57.0449 15.6613L57.046 3.32923C57.046 3.3143 57.0519 3.29997 57.0625 3.28941C57.0731 3.27885 57.0874 3.27292 57.1023 3.27292L63.5775 3.27075C63.5925 3.27075 63.6068 3.27669 63.6174 3.28725C63.6279 3.29781 63.6338 3.31213 63.6338 3.32707L63.6349 5.06527C63.6349 5.0802 63.629 5.09453 63.6184 5.10509C63.6079 5.11565 63.5935 5.12158 63.5786 5.12158L59.0441 5.12483C59.0292 5.12483 59.0149 5.13077 59.0043 5.14133C58.9937 5.15189 58.9878 5.16621 58.9878 5.18115L58.99 8.19728C58.99 8.21221 58.9959 8.22654 59.0065 8.2371C59.017 8.24766 59.0314 8.25359 59.0463 8.25359L63.401 8.24926C63.4159 8.24926 63.4303 8.2552 63.4408 8.26576C63.4514 8.27632 63.4573 8.29064 63.4573 8.30558V10.0579C63.4573 10.0728 63.4514 10.0871 63.4408 10.0977C63.4303 10.1082 63.4159 10.1142 63.401 10.1142L59.0409 10.1185C59.0259 10.1185 59.0116 10.1244 59.0011 10.135C58.9905 10.1456 58.9846 10.1599 58.9846 10.1748Z" fill="#110D0E"/>
<path d="M43.553 7.63956C43.8833 7.28001 44.2418 6.84357 44.623 6.61939C45.7082 5.9815 47.2157 6.1537 48.042 7.16521C48.1113 7.25041 48.2481 7.43488 48.4525 7.71862C48.4777 7.75328 48.5034 7.75364 48.5293 7.71971C49.5091 6.43383 50.7942 5.98548 52.3848 6.37463C53.9129 6.74826 54.7013 8.37816 54.7143 9.83587C54.7316 11.7665 54.7356 13.7043 54.7262 15.6494C54.7255 15.697 54.7017 15.7208 54.6547 15.7208L52.922 15.7219C52.8808 15.7219 52.8602 15.7017 52.8602 15.6613C52.8537 13.8787 52.8494 12.0993 52.8472 10.3232C52.8451 9.25972 52.4898 8.1085 51.2758 8.01103C50.6881 7.9641 50.186 8.1511 49.7694 8.57202C49.3788 8.96695 49.1817 9.43264 49.1781 9.96908C49.1651 11.8672 49.1557 13.7621 49.1499 15.6537C49.1499 15.663 49.148 15.6723 49.1444 15.6809C49.1408 15.6895 49.1356 15.6973 49.1289 15.7039C49.1222 15.7104 49.1144 15.7156 49.1057 15.719C49.097 15.7225 49.0878 15.7242 49.0784 15.7241L47.3251 15.7176C47.2868 15.7169 47.2677 15.6974 47.2677 15.6591C47.2669 14.039 47.2698 12.4228 47.2763 10.8106C47.2807 9.54888 47.1085 7.8984 45.4266 8.02186C44.6295 8.08142 44.0403 8.59693 43.697 9.28896C43.5335 9.61819 43.5606 9.98424 43.5627 10.3492C43.5743 12.1203 43.5754 13.891 43.566 15.6613C43.5653 15.7017 43.5447 15.7219 43.5043 15.7219L41.752 15.7187C41.7416 15.7187 41.7317 15.7146 41.7244 15.7073C41.7171 15.6999 41.713 15.69 41.713 15.6797L41.7119 6.51542C41.7119 6.47499 41.7321 6.45477 41.7726 6.45477L43.37 6.45261C43.4061 6.45261 43.4252 6.47066 43.4274 6.50676L43.4891 7.61574C43.492 7.67422 43.5133 7.68216 43.553 7.63956Z" fill="#110D0E"/>
<path d="M66.9244 11.5004C66.9922 12.1589 67.2287 12.7646 67.6337 13.3177C68.6669 14.7277 71.0755 14.2696 72.3837 13.5787C72.3918 13.5746 72.4007 13.5727 72.4097 13.5731C72.4186 13.5734 72.4274 13.5761 72.4351 13.5807C72.4427 13.5854 72.4491 13.5919 72.4536 13.5997C72.4581 13.6075 72.4605 13.6163 72.4606 13.6253L72.4563 15.3797C72.4563 15.4136 72.44 15.436 72.4076 15.4468C71.3116 15.8244 70.2683 15.9771 69.2777 15.9049C66.0092 15.6678 64.4551 12.6701 65.0941 9.681C65.5013 7.77385 66.9352 6.41686 68.8759 6.26524C72.1541 6.00749 73.4494 8.44747 73.4028 11.3488C73.4025 11.3719 73.3932 11.3939 73.3768 11.4101C73.3603 11.4264 73.3382 11.4354 73.3151 11.4354L66.9829 11.4365C66.9395 11.4365 66.92 11.4578 66.9244 11.5004ZM67.0348 10.0405L71.5791 10.0081C71.5822 10.0081 71.5853 10.0068 71.5875 10.0046C71.5897 10.0023 71.591 9.99931 71.591 9.99615V9.99181C71.5868 9.41313 71.3437 8.85984 70.9149 8.45365C70.4862 8.04746 69.907 7.82163 69.3048 7.82583H69.2788C68.9805 7.8279 68.6855 7.88641 68.4107 7.99802C68.1359 8.10962 67.8867 8.27215 67.6772 8.4763C67.4677 8.68046 67.3021 8.92224 67.1898 9.18785C67.0776 9.45346 67.0209 9.73769 67.0229 10.0243V10.0286C67.0229 10.0318 67.0242 10.0348 67.0264 10.0371C67.0286 10.0393 67.0317 10.0405 67.0348 10.0405Z" fill="#110D0E"/>
<path d="M76.8995 7.72373C76.8998 7.72842 76.9015 7.7329 76.9044 7.73656C76.9074 7.74022 76.9114 7.74289 76.9159 7.7442C76.9204 7.7455 76.9252 7.74538 76.9296 7.74385C76.9341 7.74232 76.9379 7.73945 76.9407 7.73564C77.6713 6.72846 78.6727 6.27252 79.9449 6.36783C79.9774 6.37071 79.994 6.3884 79.9947 6.42089L80.0001 8.1266C80.0001 8.16198 79.9824 8.17931 79.947 8.17859C78.9994 8.15151 78.0085 8.184 77.4442 9.08938C77.1251 9.602 76.9634 10.1753 76.9591 10.8092C76.949 12.4228 76.9479 14.0365 76.9558 15.6501C76.9558 15.6956 76.9331 15.7184 76.8876 15.7184L75.1277 15.7314C75.1154 15.7314 75.1035 15.7263 75.0948 15.7174C75.0861 15.7085 75.0812 15.6964 75.0812 15.6837L75.0801 6.50103C75.0801 6.46782 75.0967 6.45122 75.1299 6.45122L76.7067 6.45338C76.7479 6.45338 76.7706 6.4736 76.775 6.51403L76.8995 7.72373Z" fill="#110D0E"/>
<path d="M37.3758 12.9689C37.5375 12.6122 37.6169 12.1628 37.614 11.6205C37.6039 9.91951 37.5999 8.21525 37.6021 6.50773C37.6021 6.47019 37.6209 6.45142 37.6584 6.45142L39.4367 6.4525C39.4491 6.4525 39.4609 6.45729 39.4696 6.46582C39.4784 6.47435 39.4833 6.48592 39.4833 6.49798C39.4948 8.26687 39.5053 10.0376 39.5147 11.8101C39.5205 12.9003 39.2244 13.828 38.6266 14.5933C37.7451 15.7207 36.0491 16.0738 34.6629 15.8529C33.1857 15.6179 32.0734 14.7341 31.6457 13.3057C31.528 12.9136 31.4662 12.2375 31.4605 11.2772C31.4511 9.68956 31.4496 8.10153 31.4561 6.51315C31.4569 6.47344 31.4767 6.45358 31.5157 6.45358L33.2615 6.45466C33.3019 6.45466 33.3221 6.47452 33.3221 6.51423C33.3207 8.27445 33.3221 10.0307 33.3265 11.783C33.3286 12.5941 33.7001 13.6771 34.5492 13.9901C35.6419 14.3919 36.8624 14.0973 37.3758 12.9689Z" fill="#110D0E"/>
</svg>
