<svg width="34" height="42" viewBox="0 0 34 42" fill="none" xmlns="http://www.w3.org/2000/svg">
<path d="M25.3048 3.85509C24.5983 5.10897 24.9265 6.52538 25.2482 7.83927C25.4824 8.79687 25.6072 9.38693 25.6226 9.60946C25.8041 12.331 23.5135 14.605 20.6876 14.305C18.6943 14.0937 17.2235 12.786 16.7216 10.8971C16.7088 10.8496 16.6847 10.8433 16.6496 10.8783C15.7599 11.7743 15.1195 12.7952 14.7283 13.9412C13.7735 16.7352 14.7837 19.9681 16.6521 22.2033C16.6601 22.2127 16.6701 22.2205 16.6813 22.226C16.6925 22.2315 16.7048 22.2347 16.7174 22.2354C16.7299 22.2361 16.7425 22.2343 16.7543 22.2301C16.7661 22.2258 16.7769 22.2193 16.786 22.2108C17.2531 21.7708 18.123 21.0907 18.262 20.4569C18.8024 17.9853 20.9309 15.8651 23.5547 15.5076C24.7836 15.3401 26.028 15.8201 26.7139 16.8315C27.634 18.1904 27.19 20.0343 26.3163 21.3407C25.3305 22.8134 23.9172 23.7693 22.0761 24.2085C21.775 24.2802 21.5091 24.464 21.2783 24.7598C21.256 24.789 21.2629 24.8073 21.2989 24.8148C23.0224 25.2099 24.6554 25.1378 26.1979 24.5986C28.6291 23.7485 30.3685 22.122 31.416 19.7193C31.6913 19.0867 32.7079 19.208 32.8933 19.8806C33.0142 20.3218 32.5522 21.1119 32.3309 21.4945C29.8229 25.8187 24.8055 27.5776 19.967 26.0912C19.9233 26.0779 19.8851 26.087 19.8525 26.1187C14.8905 30.9426 9.92886 35.7631 4.9677 40.5803C4.23806 41.2878 3.89062 41.0066 3.2961 40.4315C2.64925 39.8056 2.00326 39.1784 1.35813 38.55C0.945056 38.1462 0.851117 37.6974 1.27963 37.2799C6.03662 32.6577 10.7855 28.0443 15.5262 23.4397C15.5579 23.408 15.5592 23.3755 15.53 23.3422C13.5509 21.0319 12.4249 17.9578 12.838 14.97C13.2021 12.3322 14.8428 10.0007 17.0395 8.44683C17.4538 8.1543 18.0767 8.26556 18.2633 8.72436C18.3156 8.85354 18.3224 9.09565 18.2838 9.45069C18.132 10.8192 18.6188 11.8068 19.7444 12.4135C21.618 13.4224 23.8983 12.1797 24.0205 10.1583C24.0411 9.82323 23.9583 9.28359 23.7722 8.53934C23.4608 7.28921 23.2665 6.43662 23.2999 5.22274C23.3514 3.40379 24.3744 2.14991 25.8388 1.1498C26.2699 0.85602 26.8696 1.00979 27.0433 1.47609C27.0931 1.60943 27.0836 1.82987 27.015 2.13741C26.5337 4.28389 27.966 5.53527 29.2798 6.96792C30.8609 8.69144 32.0615 10.6379 32.8817 12.8073C32.9838 13.0765 33.0198 13.2882 32.9898 13.4424C32.8341 14.2387 31.7004 14.31 31.4301 13.5324C30.501 10.8583 29.0225 8.99939 26.97 6.83541C26.215 6.03949 25.6857 5.04938 25.382 3.86509C25.3649 3.79758 25.3391 3.79425 25.3048 3.85509ZM19.3841 24.216C19.413 24.2328 19.4469 24.2396 19.4804 24.2353C19.5138 24.231 19.5447 24.2158 19.5681 24.1923C19.9979 23.761 20.4727 23.2534 20.9952 22.9759C21.5897 22.6596 22.3065 22.5771 22.8186 22.3358C24 21.7808 24.8471 20.9157 25.3601 19.7405C25.835 18.6517 25.7102 17.134 24.1672 17.0765C22.4081 17.0102 20.8202 18.3929 20.1343 19.8455C20.0717 19.9781 19.985 20.261 19.8744 20.6944C19.5758 21.8608 18.7999 22.4746 17.9647 23.2809C17.9167 23.3276 17.9218 23.368 17.9801 23.4022L19.3841 24.216ZM18.253 25.4686C18.2574 25.4643 18.2609 25.4591 18.263 25.4533C18.2652 25.4475 18.266 25.4414 18.2654 25.4353C18.2648 25.4292 18.2627 25.4233 18.2595 25.418C18.2562 25.4128 18.2518 25.4083 18.2465 25.4049L16.7808 24.4785C16.7727 24.4734 16.7631 24.4712 16.7535 24.4721C16.7439 24.473 16.735 24.477 16.7281 24.4835L15.5159 25.6637C15.5082 25.6714 15.5038 25.6817 15.5038 25.6924C15.5038 25.7032 15.5082 25.7135 15.5159 25.7212L16.7255 26.8975C16.7334 26.905 16.744 26.9092 16.7551 26.9092C16.7661 26.9092 16.7768 26.905 16.7847 26.8975L18.253 25.4686ZM14.3782 26.8235C14.3707 26.8163 14.3606 26.8122 14.35 26.8122C14.3394 26.8122 14.3293 26.8163 14.3218 26.8235L2.9677 37.8538C2.96022 37.8611 2.95602 37.8709 2.95602 37.8812C2.95602 37.8915 2.96022 37.9014 2.9677 37.9086L4.18154 39.0878C4.18902 39.0951 4.19917 39.0992 4.20975 39.0992C4.22033 39.0992 4.23048 39.0951 4.23796 39.0878L15.592 28.0576C15.5995 28.0503 15.6037 28.0404 15.6037 28.0302C15.6037 28.0199 15.5995 28.01 15.592 28.0028L14.3782 26.8235Z" fill="#D74535" stroke="#D74535" stroke-width="0.5"/>
<circle cx="32.5" cy="16.5" r="1.5" fill="#D74535"/>
</svg>
