<svg width="37" height="38" viewBox="0 0 37 38" fill="none" xmlns="http://www.w3.org/2000/svg">
<line x1="1.29289" y1="36.2929" x2="34.2929" y2="3.29289" stroke="#D74535" stroke-width="2"/>
<path d="M30.8082 19.9455C31.564 18.9687 31.9806 17.8651 32.0581 16.6345C32.0877 16.156 32.2556 15.7379 32.7966 15.8074C33.1801 15.8576 33.3738 16.2152 33.5868 16.52C38.9918 24.2353 34.8483 34.6031 25.8216 36.9429C25.0301 37.1474 24.5872 36.6907 24.9436 35.937C27.3659 30.8277 25.7222 25.0907 21.1062 21.8801C21.0923 21.8705 21.0766 21.8639 21.06 21.8607C21.0434 21.8574 21.0264 21.8576 21.0099 21.8612C20.9934 21.8649 20.9779 21.8718 20.9642 21.8817C20.9506 21.8916 20.9391 21.9042 20.9306 21.9187C19.3648 24.5471 19.0717 27.3126 20.0512 30.2154C20.1494 30.507 20.1791 30.7235 20.1403 30.865C20.0345 31.2522 19.66 31.3281 19.2791 31.3088C17.0961 31.1982 15.1146 30.513 13.3345 29.2533C13.2966 29.2275 13.2755 29.2374 13.2712 29.2828C12.9949 31.9558 14.2603 34.423 16.5328 35.8328C16.9408 36.0862 16.884 36.7049 16.5263 36.9197C16.3739 37.0106 16.157 37.0243 15.8755 36.9609C10.7534 35.7942 6.61123 31.8259 5.40784 26.7668C4.44805 22.7338 5.18231 18.9983 7.61061 15.5604C7.83528 15.2427 8.04703 15.0871 8.43052 15.1861C8.65777 15.2444 8.80023 15.3893 8.8579 15.6209C9.41484 17.8351 10.6931 19.4828 12.6927 20.5642C12.7392 20.5891 12.7603 20.5758 12.756 20.5243C12.1388 13.2052 14.9175 6.2655 20.2669 1.27459C20.5703 0.990315 20.9396 0.877119 21.2559 1.17812C21.611 1.5177 21.4186 2.25734 21.4328 2.71784C21.5163 5.36508 22.4985 7.62256 24.3793 9.49029C25.4975 10.6017 26.6071 11.7242 27.708 12.8579C29.6164 14.8251 30.633 17.1825 30.7578 19.93C30.7604 19.9815 30.7772 19.9866 30.8082 19.9455ZM12.1879 27.9425C12.3325 27.3559 12.889 27.1964 13.3358 27.5991C14.7948 28.9102 16.5276 29.6915 18.5341 29.9427C18.5771 29.9487 18.5935 29.9307 18.5832 29.8887C17.7456 26.5443 18.2853 23.4777 20.2023 20.689C20.4257 20.3648 20.7679 20.1667 21.1255 20.3764C26.351 23.4468 28.6222 29.5658 26.617 35.3118C26.6155 35.3165 26.6153 35.3215 26.6164 35.3262C26.6175 35.331 26.6199 35.3353 26.6233 35.3387C26.6267 35.3421 26.631 35.3444 26.6356 35.3453C26.6401 35.3462 26.6449 35.3458 26.6492 35.344C30.2246 34.0075 32.998 31.2638 34.1382 27.6376C35.1298 24.4853 34.8255 21.3831 33.2253 18.3311C33.1495 18.1862 33.0884 18.1922 33.0419 18.3492C32.6262 19.7615 31.8407 20.9677 30.6855 21.9676C30.3459 22.2621 29.956 22.4564 29.6087 22.0782C29.3285 21.7733 29.4421 20.8961 29.4473 20.4883C29.4925 17.5208 28.2271 15.0317 26.1069 13.0084C25.556 12.4818 24.6565 11.5977 23.4083 10.356C21.4414 8.39907 20.3547 6.04082 20.1481 3.28124C20.1446 3.23065 20.1257 3.22379 20.0913 3.26066C15.5476 8.05991 13.2531 14.6536 14.1402 21.2434C14.2512 22.0692 13.9103 22.4795 13.0582 22.1438C10.7374 21.2288 9.08343 19.6458 8.0961 17.3947C8.04187 17.2712 7.98334 17.2687 7.9205 17.387C6.42616 20.2015 5.97166 23.0717 6.557 25.9976C7.32397 29.836 9.88182 32.9681 13.3913 34.7253C13.4507 34.7553 13.4627 34.742 13.4274 34.6854C13.0203 34.0422 12.7659 33.6062 12.6643 33.3772C11.8853 31.6218 11.7265 29.8102 12.1879 27.9425Z" fill="#D74535" stroke="#D74535"/>
</svg>
