<svg width="35" height="38" viewBox="0 0 35 38" fill="none" xmlns="http://www.w3.org/2000/svg">
<path d="M26.7259 31.4206C28.465 30.8034 28.9615 28.127 28.8434 26.5519C28.8204 26.2579 28.6634 25.9289 28.4857 25.6466C27.7237 24.4355 26.9288 23.247 26.1011 22.0811C22.9358 17.6219 19.6764 13.1954 16.7117 8.59394C16.2119 7.81847 15.7548 7.01811 15.3406 6.19285C15.0941 5.69934 15.0001 5.28982 15.0001 4.6983C14.9993 3.67004 15.0028 2.64178 15.0104 1.61352C15.0162 0.789822 16.1408 0.764154 16.1443 1.72786C16.1488 2.81756 16.1496 3.90727 16.1465 4.99698C16.1454 5.52083 16.7553 6.50553 17.2999 7.38173C18.2262 8.87279 19.5377 10.8154 21.2344 13.2094C23.3439 16.1869 25.4503 19.1674 27.5536 22.1511C28.256 23.1475 28.9225 24.168 29.553 25.2126C29.8339 25.6781 29.9646 26.1028 29.991 26.6721C30.093 28.8597 29.3467 31.815 26.9827 32.5617C25.8057 32.9335 24.3864 33.2115 22.7248 33.3959C21.5211 33.5289 20.7185 34.0014 20.73 35.3886C20.7369 36.105 19.7567 36.2473 19.6076 35.5169C19.5763 35.3606 19.5687 35.2015 19.5847 35.0398C19.7659 33.2232 20.9639 32.3972 22.6446 32.207C23.3462 32.1276 23.7509 32.0798 23.8586 32.0635C25.0892 31.8768 26.0449 31.6625 26.7259 31.4206Z" fill="#D74535" stroke="#D74535"/>
<path d="M18.2055 31.9068C17.7735 32.1336 16.8528 32.6387 15.4436 33.422C14.3488 34.0306 13.2657 34.1586 12.1943 33.8059C9.68012 32.9777 8.29013 29.8125 9.3691 27.0274C10.0466 25.2811 11.5033 24.1511 13.193 24.0356C13.3321 24.0253 14.635 23.9213 14.9663 24.1254C15.326 24.3476 15.2932 25.0589 14.9335 25.24C14.8355 25.2896 14.6527 25.3149 14.385 25.3158C13.3841 25.3196 12.5551 25.2567 11.6774 25.8756C9.9459 27.0967 9.63262 29.7907 10.9841 31.5062C11.7362 32.4615 12.9837 32.9212 14.0977 32.6336C14.3677 32.5642 14.8069 32.3592 15.4153 32.0185C16.2907 31.528 17.1654 31.0371 18.0392 30.5457C19.626 29.6546 20.8226 29.1564 22.4388 28.906C22.8731 28.8392 23.3594 28.7519 23.7111 29.0665C24.1647 29.4722 24.0719 30.4481 23.5189 30.6857C23.408 30.7327 23.1735 30.7571 22.8154 30.7589C21.183 30.7674 19.6464 31.1501 18.2055 31.9068Z" fill="#D74535" stroke="#D74535"/>
<line x1="1.29289" y1="37.2929" x2="34.2929" y2="4.29289" stroke="#D74535" stroke-width="2"/>
</svg>
