<svg width="81" height="17" viewBox="0 0 81 17" fill="none" xmlns="http://www.w3.org/2000/svg">
<path d="M34.3716 12.522C34.4048 12.5607 34.4524 12.5893 34.5142 12.6078C36.153 13.1111 37.8385 13.5169 39.5708 13.8253C39.6226 13.8346 39.6558 13.8644 39.6705 13.9146C39.6976 14.0089 39.679 14.1117 39.6149 14.223C39.3026 14.7672 38.9937 15.3141 38.6884 15.8637C38.6471 15.9385 38.5847 15.9996 38.5089 16.0396C38.4331 16.0795 38.3472 16.0966 38.2617 16.0887C37.1231 15.9855 35.9613 15.5078 34.8632 15.19C33.8487 14.8955 32.5315 14.7923 31.3743 14.8039C30.609 14.8117 29.8171 14.8437 28.9985 14.9002C28.8408 14.9118 28.765 14.8383 28.7712 14.6799L28.8304 13.1389C28.8321 13.0932 28.8498 13.0495 28.8805 13.0154C28.9112 12.9813 28.953 12.9589 28.9985 12.9522L30.6276 12.7052C30.6633 12.6995 30.6959 12.6818 30.7202 12.655C30.7445 12.6282 30.7589 12.594 30.761 12.5579C30.7632 12.5218 30.753 12.4861 30.7321 12.4566C30.7112 12.4271 30.6809 12.4056 30.6461 12.3957C27.6883 11.5805 25.7577 9.15602 25.8551 6.0903C25.9467 3.17532 28.028 0.696316 30.9163 0.104971C31.268 0.0330824 31.7171 -0.00170277 32.2636 0.000616229C32.8654 0.00409473 33.495 -0.0248927 34.062 0.100333C37.7944 0.924737 39.9755 4.60962 38.7997 8.28639C38.1249 10.399 36.5433 11.7092 34.411 12.3875C34.3977 12.3918 34.3856 12.3992 34.3759 12.4092C34.3661 12.4192 34.359 12.4314 34.355 12.4447C34.3511 12.458 34.3506 12.4721 34.3535 12.4856C34.3564 12.499 34.3626 12.5116 34.3716 12.522ZM32.4611 10.2343C33.486 10.2414 34.4719 9.83367 35.2018 9.10073C35.9317 8.36779 36.3458 7.36968 36.3531 6.32599C36.3567 5.80921 36.2603 5.29679 36.0694 4.81799C35.8786 4.33918 35.5969 3.90338 35.2406 3.53545C34.8843 3.16752 34.4603 2.87468 33.9928 2.67364C33.5254 2.47261 33.0235 2.36731 32.516 2.36377C31.4911 2.35661 30.5053 2.76436 29.7754 3.4973C29.0455 4.23024 28.6313 5.22834 28.6241 6.27203C28.6205 6.78882 28.7168 7.30124 28.9077 7.78004C29.0986 8.25884 29.3802 8.69465 29.7365 9.06258C30.0928 9.4305 30.5168 9.72335 30.9843 9.92438C31.4518 10.1254 31.9536 10.2307 32.4611 10.2343Z" fill="#D74535"/>
<path d="M3.9019 2.87149L0.575302 2.86685C0.518411 2.86693 0.463305 2.84699 0.419635 2.81053C0.375966 2.77407 0.346516 2.72341 0.336445 2.66741L0.00366866 0.836566C-0.00667088 0.779272 0.00503023 0.720186 0.036426 0.671157C0.0678217 0.622128 0.116591 0.586781 0.172955 0.5722C0.249482 0.552875 0.343402 0.543213 0.454714 0.543213C3.7647 0.544759 7.08202 0.546691 10.4067 0.54901C10.4364 0.549078 10.4657 0.555614 10.4925 0.568158C10.5194 0.580701 10.5432 0.598947 10.5622 0.62161C10.5812 0.644273 10.595 0.670802 10.6026 0.699327C10.6102 0.727851 10.6114 0.757679 10.6061 0.786707L10.2618 2.6906C10.253 2.73995 10.2272 2.78465 10.1889 2.81688C10.1505 2.8491 10.102 2.86679 10.0519 2.86685L6.68934 2.86801C6.67853 2.86801 6.66782 2.87014 6.65783 2.87427C6.64784 2.87841 6.63877 2.88447 6.63112 2.89212C6.62348 2.89976 6.61742 2.90884 6.61328 2.91883C6.60914 2.92882 6.60701 2.93952 6.60701 2.95033L6.60353 12.7075C6.60353 12.8366 6.53938 12.9015 6.41106 12.9023L4.15931 12.9185C4.13046 12.9188 4.10232 12.9098 4.07912 12.8929C4.05591 12.876 4.03889 12.852 4.03061 12.8246C3.97186 12.6267 3.94326 12.4087 3.9448 12.1707C3.9649 9.09104 3.9707 6.01102 3.9622 2.93062C3.9622 2.8912 3.9421 2.87149 3.9019 2.87149Z" fill="#D74535"/>
<path d="M16.5441 10.5428C16.5441 10.5643 16.5527 10.5849 16.5679 10.6002C16.5831 10.6154 16.6037 10.6239 16.6253 10.6239L22.7231 10.6216C22.7679 10.6216 22.8113 10.6373 22.8458 10.6659C22.8803 10.6944 22.9037 10.7341 22.9121 10.7781L23.2611 12.6345C23.2674 12.6681 23.2662 12.7027 23.2576 12.7358C23.2491 12.7689 23.2333 12.7997 23.2115 12.826C23.1897 12.8523 23.1624 12.8736 23.1315 12.8882C23.1006 12.9028 23.0668 12.9104 23.0327 12.9105L14.2553 12.9163C14.0102 12.9163 13.8877 12.7941 13.8877 12.5499L13.8947 0.834289C13.895 0.758841 13.925 0.686588 13.9783 0.633346C14.0315 0.580105 14.1036 0.550211 14.1787 0.550211C17.052 0.547119 19.9557 0.546346 22.89 0.547892C22.9496 0.547892 23.0311 0.557555 23.1347 0.57688C23.1733 0.58461 23.1989 0.607413 23.2112 0.64529C23.2437 0.744234 23.2491 0.856319 23.2275 0.981544C23.1277 1.56284 23.0245 2.12133 22.9179 2.65702C22.9058 2.71659 22.8737 2.77015 22.827 2.80862C22.7803 2.84708 22.7219 2.86808 22.6616 2.86805H16.6241C16.6032 2.86805 16.5831 2.87636 16.5684 2.89114C16.5536 2.90593 16.5453 2.92598 16.5453 2.94689L16.5441 5.44445C16.5441 5.50166 16.5723 5.53026 16.6288 5.53026L22.1375 5.5349C22.1909 5.5349 22.2268 5.55963 22.2454 5.6091C22.2747 5.6864 22.2902 5.78651 22.2917 5.90941C22.2995 6.46829 22.2952 7.05113 22.279 7.65794C22.2778 7.71002 22.2562 7.75957 22.219 7.79597C22.1817 7.83237 22.1317 7.85275 22.0796 7.85273L16.6264 7.86085C16.6046 7.86085 16.5837 7.86952 16.5682 7.88496C16.5528 7.9004 16.5441 7.92134 16.5441 7.94317V10.5428Z" fill="#D74535"/>
<path d="M43.9084 2.86795L40.5354 2.86911C40.4891 2.86911 40.4442 2.853 40.4086 2.82356C40.3731 2.79412 40.349 2.75321 40.3406 2.70794L39.9927 0.84926C39.9857 0.812422 39.987 0.774497 39.9964 0.738185C40.0058 0.701872 40.0232 0.668065 40.0472 0.639169C40.0712 0.610274 40.1013 0.586999 40.1354 0.571005C40.1695 0.555011 40.2067 0.546689 40.2443 0.546631H50.3494C50.3864 0.546646 50.423 0.55485 50.4566 0.570654C50.4901 0.586458 50.5197 0.609473 50.5433 0.638054C50.5669 0.666634 50.5839 0.700075 50.5931 0.735984C50.6022 0.771894 50.6033 0.809387 50.5963 0.845782L50.2485 2.66735C50.2377 2.72436 50.2074 2.77582 50.1627 2.81286C50.118 2.8499 50.0619 2.8702 50.0038 2.87027L46.6888 2.86911C46.6324 2.86911 46.6042 2.89732 46.6042 2.95375V12.6541C46.6042 12.7203 46.578 12.7839 46.5312 12.8308C46.4845 12.8777 46.4211 12.9043 46.3549 12.9046L44.2365 12.9138C44.0564 12.9146 43.9663 12.8249 43.9663 12.6448V2.92476C43.9663 2.90969 43.9602 2.89524 43.9494 2.88459C43.9385 2.87393 43.9237 2.86795 43.9084 2.86795Z" fill="#D74535"/>
<path d="M56.2783 12.5857C54.9225 11.9681 54.0741 10.9698 53.7332 9.59076C53.6265 9.15788 53.569 8.38913 53.5605 7.28451C53.5442 5.14331 53.545 2.96963 53.5628 0.763494C53.5632 0.728412 53.5731 0.694057 53.5914 0.664057C53.6098 0.634057 53.6359 0.609524 53.6671 0.593048C53.8016 0.521159 54.037 0.551305 54.1599 0.548986C54.7953 0.541256 55.3859 0.542417 55.9316 0.552466C55.9997 0.553681 56.0646 0.581581 56.1123 0.630158C56.16 0.678735 56.1867 0.744105 56.1867 0.812193C56.1821 3.25719 56.1817 5.63648 56.1856 7.95007C56.189 9.91194 57.5422 10.9103 59.4391 10.6714C60.3969 10.552 61.1471 10.0673 61.4671 9.15363C61.7106 8.45561 61.6851 7.91064 61.6862 6.94942C61.6885 4.96513 61.687 2.91823 61.6816 0.808715C61.6816 0.7739 61.6884 0.739427 61.7017 0.707277C61.715 0.675127 61.7345 0.645932 61.7591 0.621368C61.7836 0.596804 61.8128 0.577355 61.8449 0.564138C61.8769 0.550921 61.9113 0.544196 61.9459 0.544349L64.0771 0.548986C64.133 0.549291 64.1865 0.571623 64.226 0.611132C64.2655 0.650642 64.2878 0.704141 64.2881 0.760015C64.2982 2.96229 64.299 5.16109 64.2904 7.3564C64.2858 8.46875 64.2286 9.2375 64.1188 9.66265C63.8467 10.7162 63.2523 11.5588 62.3355 12.1904C60.7528 13.2803 57.9886 13.3649 56.2783 12.5857Z" fill="#D74535"/>
<path d="M70.1431 5.21594L70.1384 12.7005C70.1384 12.7279 70.133 12.755 70.1225 12.7804C70.112 12.8057 70.0967 12.8287 70.0773 12.8481C70.0579 12.8675 70.0349 12.8828 70.0096 12.8933C69.9843 12.9038 69.9571 12.9092 69.9297 12.9092H67.7997C67.7444 12.9092 67.6913 12.8871 67.6521 12.8477C67.613 12.8084 67.591 12.755 67.591 12.6993L67.5898 0.785492C67.5898 0.724695 67.6137 0.666355 67.6563 0.623149C67.6988 0.579942 67.7566 0.555363 67.8171 0.554752C68.5661 0.54393 69.2928 0.541611 69.997 0.547795C70.218 0.550114 70.3904 0.660266 70.5141 0.878252C71.6272 2.84167 72.7689 4.83678 73.9393 6.86358C73.9449 6.87321 73.9529 6.88119 73.9626 6.88674C73.9722 6.89229 73.9832 6.89521 73.9943 6.89521C74.0055 6.89521 74.0164 6.89229 74.0261 6.88674C74.0358 6.88119 74.0438 6.87321 74.0494 6.86358L77.5894 0.74491C77.6249 0.683599 77.676 0.632761 77.7375 0.597537C77.799 0.562313 77.8687 0.543954 77.9395 0.544317L80.1542 0.551274C80.2253 0.55158 80.2934 0.580057 80.3436 0.630472C80.3938 0.680886 80.422 0.749133 80.422 0.820277L80.4185 12.7005C80.4185 12.7532 80.3977 12.8037 80.3605 12.8411C80.3234 12.8785 80.273 12.8996 80.2203 12.8999L78.0856 12.9081C78.0576 12.9081 78.0299 12.9025 78.004 12.8918C77.9781 12.8811 77.9546 12.8654 77.9348 12.8456C77.915 12.8258 77.8992 12.8022 77.8885 12.7763C77.8778 12.7505 77.8723 12.7227 77.8723 12.6947L77.8734 5.30058C77.8738 5.28755 77.8697 5.27479 77.8619 5.26435C77.8541 5.25391 77.843 5.24642 77.8304 5.24307C77.8178 5.23972 77.8044 5.24071 77.7925 5.24588C77.7805 5.25106 77.7706 5.26012 77.7644 5.27159L75.188 9.76349C75.1498 9.83006 75.0951 9.88563 75.0293 9.92483C74.9635 9.96403 74.8888 9.98554 74.8124 9.98727C74.3656 9.99655 73.9292 9.9981 73.5033 9.99191C73.1809 9.98727 73.007 9.97336 72.8308 9.67073C71.9612 8.18425 71.085 6.69391 70.2022 5.1997C70.1989 5.19328 70.1935 5.18819 70.1869 5.18528C70.1804 5.18237 70.173 5.18182 70.166 5.18373C70.1591 5.18564 70.153 5.18988 70.1488 5.19575C70.1446 5.20162 70.1426 5.20875 70.1431 5.21594Z" fill="#D74535"/>
<path d="M28.6234 6.27191C28.6082 8.44528 30.3261 10.2192 32.4604 10.2341C34.5947 10.249 36.3372 8.49924 36.3524 6.32587C36.3676 4.15249 34.6497 2.37855 32.5154 2.36365C30.3811 2.34874 28.6386 4.09853 28.6234 6.27191Z" fill="#110D0E"/>
</svg>
